<?xml version="1.0" encoding="UTF-8" standalone="no"?>
<!-- Created with Inkscape (http://www.inkscape.org/) -->
<svg
   xmlns:dc="http://purl.org/dc/elements/1.1/"
   xmlns:cc="http://web.resource.org/cc/"
   xmlns:rdf="http://www.w3.org/1999/02/22-rdf-syntax-ns#"
   xmlns:svg="http://www.w3.org/2000/svg"
   xmlns="http://www.w3.org/2000/svg"
   xmlns:sodipodi="http://sodipodi.sourceforge.net/DTD/sodipodi-0.dtd"
   xmlns:inkscape="http://www.inkscape.org/namespaces/inkscape"
   width="744.09448819"
   height="1052.3622047"
   id="svg2"
   sodipodi:version="0.32"
   inkscape:version="0.44">
  <defs
     id="defs4" />
  <sodipodi:namedview
     id="base"
     pagecolor="#ffffff"
     bordercolor="#666666"
     borderopacity="1.0"
     gridtolerance="10000"
     guidetolerance="10"
     objecttolerance="10"
     inkscape:pageopacity="0.0"
     inkscape:pageshadow="2"
     inkscape:zoom="0.35"
     inkscape:cx="375"
     inkscape:cy="520"
     inkscape:document-units="px"
     inkscape:current-layer="layer1"
     inkscape:window-width="853"
     inkscape:window-height="573"
     inkscape:window-x="44"
     inkscape:window-y="44" />
  <metadata
     id="metadata7">
    <rdf:RDF>
      <cc:Work
         rdf:about="">
        <dc:format>image/svg+xml</dc:format>
        <dc:type
           rdf:resource="http://purl.org/dc/dcmitype/StillImage" />
      </cc:Work>
    </rdf:RDF>
  </metadata>
  <g
     inkscape:label="Layer 1"
     inkscape:groupmode="layer"
     id="layer1">
    <path
       style="fill:#e07878;fill-rule:evenodd;stroke:#000000;stroke-width:1px;stroke-linecap:butt;stroke-linejoin:miter;stroke-opacity:1"
       d="M 180.542,457.185 L 180.796,478.314 L 204.131,474.816 L 203.963,453.72 z" />
    <path
       style="fill:#e07878;fill-rule:evenodd;stroke:#000000;stroke-width:1px;stroke-linecap:butt;stroke-linejoin:miter;stroke-opacity:1"
       d="M 157.02,460.664 L 157.359,481.828 L 180.796,478.314 L 180.542,457.185 z" />
    <path
       style="fill:#e17878;fill-rule:evenodd;stroke:#000000;stroke-width:1px;stroke-linecap:butt;stroke-linejoin:miter;stroke-opacity:1"
       d="M 133.394,464.16 L 133.819,485.356 L 157.359,481.828 L 157.02,460.664 z" />
    <path
       style="fill:#e17878;fill-rule:evenodd;stroke:#000000;stroke-width:1px;stroke-linecap:butt;stroke-linejoin:miter;stroke-opacity:1"
       d="M 180.287,435.901 L 180.542,457.185 L 203.963,453.72 L 203.794,432.47 z" />
    <path
       style="fill:#e17878;fill-rule:evenodd;stroke:#000000;stroke-width:1px;stroke-linecap:butt;stroke-linejoin:miter;stroke-opacity:1"
       d="M 109.664,467.67 L 110.177,488.9 L 133.819,485.356 L 133.394,464.16 z" />
    <path
       style="fill:#e17878;fill-rule:evenodd;stroke:#000000;stroke-width:1px;stroke-linecap:butt;stroke-linejoin:miter;stroke-opacity:1"
       d="M 156.678,439.347 L 157.02,460.664 L 180.542,457.185 L 180.287,435.901 z" />
    <path
       style="fill:#e17878;fill-rule:evenodd;stroke:#000000;stroke-width:1px;stroke-linecap:butt;stroke-linejoin:miter;stroke-opacity:1"
       d="M 85.8297,471.196 L 86.4311,492.46 L 110.177,488.9 L 109.664,467.67 z" />
    <path
       style="fill:#e17878;fill-rule:evenodd;stroke:#000000;stroke-width:1px;stroke-linecap:butt;stroke-linejoin:miter;stroke-opacity:1"
       d="M 132.965,442.808 L 133.394,464.16 L 157.02,460.664 L 156.678,439.347 z" />
    <path
       style="fill:#e17878;fill-rule:evenodd;stroke:#000000;stroke-width:1px;stroke-linecap:butt;stroke-linejoin:miter;stroke-opacity:1"
       d="M 180.03,414.461 L 180.287,435.901 L 203.794,432.47 L 203.623,411.064 z" />
    <path
       style="fill:#e17878;fill-rule:evenodd;stroke:#000000;stroke-width:1px;stroke-linecap:butt;stroke-linejoin:miter;stroke-opacity:1"
       d="M 61.8906,474.738 L 62.5809,496.035 L 86.4311,492.46 L 85.8297,471.196 z" />
    <path
       style="fill:#e27979;fill-rule:evenodd;stroke:#000000;stroke-width:1px;stroke-linecap:butt;stroke-linejoin:miter;stroke-opacity:1"
       d="M 109.147,446.284 L 109.664,467.67 L 133.394,464.16 L 132.965,442.808 z" />
    <path
       style="fill:#e27979;fill-rule:evenodd;stroke:#000000;stroke-width:1px;stroke-linecap:butt;stroke-linejoin:miter;stroke-opacity:1"
       d="M 156.334,417.872 L 156.678,439.347 L 180.287,435.901 L 180.03,414.461 z" />
    <path
       style="fill:#e27979;fill-rule:evenodd;stroke:#000000;stroke-width:1px;stroke-linecap:butt;stroke-linejoin:miter;stroke-opacity:1"
       d="M 203.451,389.502 L 203.623,411.064 L 227.113,407.683 L 227.027,386.155 z" />
    <path
       style="fill:#e27979;fill-rule:evenodd;stroke:#000000;stroke-width:1px;stroke-linecap:butt;stroke-linejoin:miter;stroke-opacity:1"
       d="M 37.8456,478.295 L 38.6257,499.626 L 62.5809,496.035 L 61.8906,474.738 z" />
    <path
       style="fill:#e27979;fill-rule:evenodd;stroke:#000000;stroke-width:1px;stroke-linecap:butt;stroke-linejoin:miter;stroke-opacity:1"
       d="M 85.2239,449.776 L 85.8297,471.196 L 109.664,467.67 L 109.147,446.284 z" />
    <path
       style="fill:#e27979;fill-rule:evenodd;stroke:#000000;stroke-width:1px;stroke-linecap:butt;stroke-linejoin:miter;stroke-opacity:1"
       d="M 13.6942,481.868 L 14.5648,503.233 L 38.6257,499.626 L 37.8456,478.295 z" />
    <path
       style="fill:#e27979;fill-rule:evenodd;stroke:#000000;stroke-width:1px;stroke-linecap:butt;stroke-linejoin:miter;stroke-opacity:1"
       d="M 132.532,421.299 L 132.965,442.808 L 156.678,439.347 L 156.334,417.872 z" />
    <path
       style="fill:#e27979;fill-rule:evenodd;stroke:#000000;stroke-width:1px;stroke-linecap:butt;stroke-linejoin:miter;stroke-opacity:1"
       d="M 179.771,392.863 L 180.03,414.461 L 203.623,411.064 L 203.451,389.502 z" />
    <path
       style="fill:#e27979;fill-rule:evenodd;stroke:#000000;stroke-width:1px;stroke-linecap:butt;stroke-linejoin:miter;stroke-opacity:1"
       d="M 61.1951,453.283 L 61.8906,474.738 L 85.8297,471.196 L 85.2239,449.776 z" />
    <path
       style="fill:#e27979;fill-rule:evenodd;stroke:#000000;stroke-width:1px;stroke-linecap:butt;stroke-linejoin:miter;stroke-opacity:1"
       d="M 108.626,424.74 L 109.147,446.284 L 132.965,442.808 L 132.532,421.299 z" />
    <path
       style="fill:#e27979;fill-rule:evenodd;stroke:#000000;stroke-width:1px;stroke-linecap:butt;stroke-linejoin:miter;stroke-opacity:1"
       d="M 155.987,396.24 L 156.334,417.872 L 180.03,414.461 L 179.771,392.863 z" />
    <path
       style="fill:#e27979;fill-rule:evenodd;stroke:#000000;stroke-width:1px;stroke-linecap:butt;stroke-linejoin:miter;stroke-opacity:1"
       d="M 203.278,367.781 L 203.451,389.502 L 227.027,386.155 L 226.941,364.47 z" />
    <path
       style="fill:#e27979;fill-rule:evenodd;stroke:#000000;stroke-width:1px;stroke-linecap:butt;stroke-linejoin:miter;stroke-opacity:1"
       d="M 37.0598,456.806 L 37.8456,478.295 L 61.8906,474.738 L 61.1951,453.283 z" />
    <path
       style="fill:#e37979;fill-rule:evenodd;stroke:#000000;stroke-width:1px;stroke-linecap:butt;stroke-linejoin:miter;stroke-opacity:1"
       d="M 84.6135,428.197 L 85.2239,449.776 L 109.147,446.284 L 108.626,424.74 z" />
    <path
       style="fill:#e37979;fill-rule:evenodd;stroke:#000000;stroke-width:1px;stroke-linecap:butt;stroke-linejoin:miter;stroke-opacity:1"
       d="M 132.097,399.631 L 132.532,421.299 L 156.334,417.872 L 155.987,396.24 z" />
    <path
       style="fill:#e37979;fill-rule:evenodd;stroke:#000000;stroke-width:1px;stroke-linecap:butt;stroke-linejoin:miter;stroke-opacity:1"
       d="M 12.8172,460.344 L 13.6942,481.868 L 37.8456,478.295 L 37.0598,456.806 z" />
    <path
       style="fill:#e37979;fill-rule:evenodd;stroke:#000000;stroke-width:1px;stroke-linecap:butt;stroke-linejoin:miter;stroke-opacity:1"
       d="M 179.511,371.107 L 179.771,392.863 L 203.451,389.502 L 203.278,367.781 z" />
    <path
       style="fill:#e37979;fill-rule:evenodd;stroke:#000000;stroke-width:1px;stroke-linecap:butt;stroke-linejoin:miter;stroke-opacity:1"
       d="M 60.4945,431.669 L 61.1951,453.283 L 85.2239,449.776 L 84.6135,428.197 z" />
    <path
       style="fill:#e37979;fill-rule:evenodd;stroke:#000000;stroke-width:1px;stroke-linecap:butt;stroke-linejoin:miter;stroke-opacity:1"
       d="M 108.101,403.037 L 108.626,424.74 L 132.532,421.299 L 132.097,399.631 z" />
    <path
       style="fill:#e37979;fill-rule:evenodd;stroke:#000000;stroke-width:1px;stroke-linecap:butt;stroke-linejoin:miter;stroke-opacity:1"
       d="M 203.104,345.9 L 203.278,367.781 L 226.941,364.47 L 226.854,342.625 z" />
    <path
       style="fill:#e37979;fill-rule:evenodd;stroke:#000000;stroke-width:1px;stroke-linecap:butt;stroke-linejoin:miter;stroke-opacity:1"
       d="M 155.638,374.447 L 155.987,396.24 L 179.771,392.863 L 179.511,371.107 z" />
    <path
       style="fill:#e37979;fill-rule:evenodd;stroke:#000000;stroke-width:1px;stroke-linecap:butt;stroke-linejoin:miter;stroke-opacity:1"
       d="M 36.2681,435.157 L 37.0598,456.806 L 61.1951,453.283 L 60.4945,431.669 z" />
    <path
       style="fill:#e37979;fill-rule:evenodd;stroke:#000000;stroke-width:1px;stroke-linecap:butt;stroke-linejoin:miter;stroke-opacity:1"
       d="M 83.9987,406.458 L 84.6135,428.197 L 108.626,424.74 L 108.101,403.037 z" />
    <path
       style="fill:#e37979;fill-rule:evenodd;stroke:#000000;stroke-width:1px;stroke-linecap:butt;stroke-linejoin:miter;stroke-opacity:1"
       d="M 226.767,320.618 L 226.854,342.625 L 250.5,339.364 L 250.5,317.394 z" />
    <path
       style="fill:#e37979;fill-rule:evenodd;stroke:#000000;stroke-width:1px;stroke-linecap:butt;stroke-linejoin:miter;stroke-opacity:1"
       d="M 131.659,377.803 L 132.097,399.631 L 155.987,396.24 L 155.638,374.447 z" />
    <path
       style="fill:#e37979;fill-rule:evenodd;stroke:#000000;stroke-width:1px;stroke-linecap:butt;stroke-linejoin:miter;stroke-opacity:1"
       d="M 179.248,349.189 L 179.511,371.107 L 203.278,367.781 L 203.104,345.9 z" />
    <path
       style="fill:#e37979;fill-rule:evenodd;stroke:#000000;stroke-width:1px;stroke-linecap:butt;stroke-linejoin:miter;stroke-opacity:1"
       d="M 11.9336,438.66 L 12.8172,460.344 L 37.0598,456.806 L 36.2681,435.157 z" />
    <path
       style="fill:#e37979;fill-rule:evenodd;stroke:#000000;stroke-width:1px;stroke-linecap:butt;stroke-linejoin:miter;stroke-opacity:1"
       d="M 59.7887,409.895 L 60.4945,431.669 L 84.6135,428.197 L 83.9987,406.458 z" />
    <path
       style="fill:#e47a7a;fill-rule:evenodd;stroke:#000000;stroke-width:1px;stroke-linecap:butt;stroke-linejoin:miter;stroke-opacity:1"
       d="M 107.573,381.173 L 108.101,403.037 L 132.097,399.631 L 131.659,377.803 z" />
    <path
       style="fill:#e47a7a;fill-rule:evenodd;stroke:#000000;stroke-width:1px;stroke-linecap:butt;stroke-linejoin:miter;stroke-opacity:1"
       d="M 202.928,323.856 L 203.104,345.9 L 226.854,342.625 L 226.767,320.618 z" />
    <path
       style="fill:#e47a7a;fill-rule:evenodd;stroke:#000000;stroke-width:1px;stroke-linecap:butt;stroke-linejoin:miter;stroke-opacity:1"
       d="M 155.286,352.493 L 155.638,374.447 L 179.511,371.107 L 179.248,349.189 z" />
    <path
       style="fill:#e47a7a;fill-rule:evenodd;stroke:#000000;stroke-width:1px;stroke-linecap:butt;stroke-linejoin:miter;stroke-opacity:1"
       d="M 35.4705,413.347 L 36.2681,435.157 L 60.4945,431.669 L 59.7887,409.895 z" />
    <path
       style="fill:#e47a7a;fill-rule:evenodd;stroke:#000000;stroke-width:1px;stroke-linecap:butt;stroke-linejoin:miter;stroke-opacity:1"
       d="M 83.3793,384.558 L 83.9987,406.458 L 108.101,403.037 L 107.573,381.173 z" />
    <path
       style="fill:#e47a7a;fill-rule:evenodd;stroke:#000000;stroke-width:1px;stroke-linecap:butt;stroke-linejoin:miter;stroke-opacity:1"
       d="M 226.679,298.448 L 226.767,320.618 L 250.5,317.394 L 250.5,295.261 z" />
    <path
       style="fill:#e47a7a;fill-rule:evenodd;stroke:#000000;stroke-width:1px;stroke-linecap:butt;stroke-linejoin:miter;stroke-opacity:1"
       d="M 131.217,355.812 L 131.659,377.803 L 155.638,374.447 L 155.286,352.493 z" />
    <path
       style="fill:#e47a7a;fill-rule:evenodd;stroke:#000000;stroke-width:1px;stroke-linecap:butt;stroke-linejoin:miter;stroke-opacity:1"
       d="M 178.983,327.109 L 179.248,349.189 L 203.104,345.9 L 202.928,323.856 z" />
    <path
       style="fill:#e47a7a;fill-rule:evenodd;stroke:#000000;stroke-width:1px;stroke-linecap:butt;stroke-linejoin:miter;stroke-opacity:1"
       d="M 11.0434,416.815 L 11.9336,438.66 L 36.2681,435.157 L 35.4705,413.347 z" />
    <path
       style="fill:#e47a7a;fill-rule:evenodd;stroke:#000000;stroke-width:1px;stroke-linecap:butt;stroke-linejoin:miter;stroke-opacity:1"
       d="M 59.0776,387.959 L 59.7887,409.895 L 83.9987,406.458 L 83.3793,384.558 z" />
    <path
       style="fill:#e47a7a;fill-rule:evenodd;stroke:#000000;stroke-width:1px;stroke-linecap:butt;stroke-linejoin:miter;stroke-opacity:1"
       d="M 107.04,359.146 L 107.573,381.173 L 131.659,377.803 L 131.217,355.812 z" />
    <path
       style="fill:#e47a7a;fill-rule:evenodd;stroke:#000000;stroke-width:1px;stroke-linecap:butt;stroke-linejoin:miter;stroke-opacity:1"
       d="M 202.751,301.648 L 202.928,323.856 L 226.767,320.618 L 226.679,298.448 z" />
    <path
       style="fill:#e47a7a;fill-rule:evenodd;stroke:#000000;stroke-width:1px;stroke-linecap:butt;stroke-linejoin:miter;stroke-opacity:1"
       d="M 154.931,330.376 L 155.286,352.493 L 179.248,349.189 L 178.983,327.109 z" />
    <path
       style="fill:#e47a7a;fill-rule:evenodd;stroke:#000000;stroke-width:1px;stroke-linecap:butt;stroke-linejoin:miter;stroke-opacity:1"
       d="M 34.6669,391.374 L 35.4705,413.347 L 59.7887,409.895 L 59.0776,387.959 z" />
    <path
       style="fill:#e57a7a;fill-rule:evenodd;stroke:#000000;stroke-width:1px;stroke-linecap:butt;stroke-linejoin:miter;stroke-opacity:1"
       d="M 226.59,276.112 L 226.679,298.448 L 250.5,295.261 L 250.5,272.964 z" />
    <path
       style="fill:#e57a7a;fill-rule:evenodd;stroke:#000000;stroke-width:1px;stroke-linecap:butt;stroke-linejoin:miter;stroke-opacity:1"
       d="M 82.7552,362.494 L 83.3793,384.558 L 107.573,381.173 L 107.04,359.146 z" />
    <path
       style="fill:#e57a7a;fill-rule:evenodd;stroke:#000000;stroke-width:1px;stroke-linecap:butt;stroke-linejoin:miter;stroke-opacity:1"
       d="M 178.717,304.863 L 178.983,327.109 L 202.928,323.856 L 202.751,301.648 z" />
    <path
       style="fill:#e57a7a;fill-rule:evenodd;stroke:#000000;stroke-width:1px;stroke-linecap:butt;stroke-linejoin:miter;stroke-opacity:1"
       d="M 130.772,333.657 L 131.217,355.812 L 155.286,352.493 L 154.931,330.376 z" />
    <path
       style="fill:#e57a7a;fill-rule:evenodd;stroke:#000000;stroke-width:1px;stroke-linecap:butt;stroke-linejoin:miter;stroke-opacity:1"
       d="M 10.1466,394.805 L 11.0434,416.815 L 35.4705,413.347 L 34.6669,391.374 z" />
    <path
       style="fill:#e57a7a;fill-rule:evenodd;stroke:#000000;stroke-width:1px;stroke-linecap:butt;stroke-linejoin:miter;stroke-opacity:1"
       d="M 58.3612,365.858 L 59.0776,387.959 L 83.3793,384.558 L 82.7552,362.494 z" />
    <path
       style="fill:#e57a7a;fill-rule:evenodd;stroke:#000000;stroke-width:1px;stroke-linecap:butt;stroke-linejoin:miter;stroke-opacity:1"
       d="M 202.573,279.275 L 202.751,301.648 L 226.679,298.448 L 226.59,276.112 z" />
    <path
       style="fill:#e57a7a;fill-rule:evenodd;stroke:#000000;stroke-width:1px;stroke-linecap:butt;stroke-linejoin:miter;stroke-opacity:1"
       d="M 106.504,336.954 L 107.04,359.146 L 131.217,355.812 L 130.772,333.657 z" />
    <path
       style="fill:#e57a7a;fill-rule:evenodd;stroke:#000000;stroke-width:1px;stroke-linecap:butt;stroke-linejoin:miter;stroke-opacity:1"
       d="M 154.574,308.093 L 154.931,330.376 L 178.983,327.109 L 178.717,304.863 z" />
    <path
       style="fill:#e57a7a;fill-rule:evenodd;stroke:#000000;stroke-width:1px;stroke-linecap:butt;stroke-linejoin:miter;stroke-opacity:1"
       d="M 33.8574,369.237 L 34.6669,391.374 L 59.0776,387.959 L 58.3612,365.858 z" />
    <path
       style="fill:#e57a7a;fill-rule:evenodd;stroke:#000000;stroke-width:1px;stroke-linecap:butt;stroke-linejoin:miter;stroke-opacity:1"
       d="M 226.501,253.61 L 226.59,276.112 L 250.5,272.964 L 250.5,250.5 z" />
    <path
       style="fill:#e57a7a;fill-rule:evenodd;stroke:#000000;stroke-width:1px;stroke-linecap:butt;stroke-linejoin:miter;stroke-opacity:1"
       d="M 82.1265,340.265 L 82.7552,362.494 L 107.04,359.146 L 106.504,336.954 z" />
    <path
       style="fill:#e57a7a;fill-rule:evenodd;stroke:#000000;stroke-width:1px;stroke-linecap:butt;stroke-linejoin:miter;stroke-opacity:1"
       d="M 178.448,282.452 L 178.717,304.863 L 202.751,301.648 L 202.573,279.275 z" />
    <path
       style="fill:#e57a7a;fill-rule:evenodd;stroke:#000000;stroke-width:1px;stroke-linecap:butt;stroke-linejoin:miter;stroke-opacity:1"
       d="M 130.323,311.337 L 130.772,333.657 L 154.931,330.376 L 154.574,308.093 z" />
    <path
       style="fill:#e57a7a;fill-rule:evenodd;stroke:#000000;stroke-width:1px;stroke-linecap:butt;stroke-linejoin:miter;stroke-opacity:1"
       d="M 9.243,372.631 L 10.1466,394.805 L 34.6669,391.374 L 33.8574,369.237 z" />
    <path
       style="fill:#e57a7a;fill-rule:evenodd;stroke:#000000;stroke-width:1px;stroke-linecap:butt;stroke-linejoin:miter;stroke-opacity:1"
       d="M 57.6394,343.591 L 58.3612,365.858 L 82.7552,362.494 L 82.1265,340.265 z" />
    <path
       style="fill:#e67b7b;fill-rule:evenodd;stroke:#000000;stroke-width:1px;stroke-linecap:butt;stroke-linejoin:miter;stroke-opacity:1"
       d="M 202.393,256.734 L 202.573,279.275 L 226.59,276.112 L 226.501,253.61 z" />
    <path
       style="fill:#e67b7b;fill-rule:evenodd;stroke:#000000;stroke-width:1px;stroke-linecap:butt;stroke-linejoin:miter;stroke-opacity:1"
       d="M 105.963,314.595 L 106.504,336.954 L 130.772,333.657 L 130.323,311.337 z" />
    <path
       style="fill:#e67b7b;fill-rule:evenodd;stroke:#000000;stroke-width:1px;stroke-linecap:butt;stroke-linejoin:miter;stroke-opacity:1"
       d="M 154.214,285.643 L 154.574,308.093 L 178.717,304.863 L 178.448,282.452 z" />
    <path
       style="fill:#e67b7b;fill-rule:evenodd;stroke:#000000;stroke-width:1px;stroke-linecap:butt;stroke-linejoin:miter;stroke-opacity:1"
       d="M 33.0417,346.932 L 33.8574,369.237 L 58.3612,365.858 L 57.6394,343.591 z" />
    <path
       style="fill:#e67b7b;fill-rule:evenodd;stroke:#000000;stroke-width:1px;stroke-linecap:butt;stroke-linejoin:miter;stroke-opacity:1"
       d="M 81.493,317.868 L 82.1265,340.265 L 106.504,336.954 L 105.963,314.595 z" />
    <path
       style="fill:#e67b7b;fill-rule:evenodd;stroke:#000000;stroke-width:1px;stroke-linecap:butt;stroke-linejoin:miter;stroke-opacity:1"
       d="M 178.177,259.872 L 178.448,282.452 L 202.573,279.275 L 202.393,256.734 z" />
    <path
       style="fill:#e67b7b;fill-rule:evenodd;stroke:#000000;stroke-width:1px;stroke-linecap:butt;stroke-linejoin:miter;stroke-opacity:1"
       d="M 129.872,288.848 L 130.323,311.337 L 154.574,308.093 L 154.214,285.643 z" />
    <path
       style="fill:#e67b7b;fill-rule:evenodd;stroke:#000000;stroke-width:1px;stroke-linecap:butt;stroke-linejoin:miter;stroke-opacity:1"
       d="M 8.3326,350.289 L 9.243,372.631 L 33.8574,369.237 L 33.0417,346.932 z" />
    <path
       style="fill:#e67b7b;fill-rule:evenodd;stroke:#000000;stroke-width:1px;stroke-linecap:butt;stroke-linejoin:miter;stroke-opacity:1"
       d="M 56.9122,321.157 L 57.6394,343.591 L 82.1265,340.265 L 81.493,317.868 z" />
    <path
       style="fill:#e67b7b;fill-rule:evenodd;stroke:#000000;stroke-width:1px;stroke-linecap:butt;stroke-linejoin:miter;stroke-opacity:1"
       d="M 153.852,263.024 L 154.214,285.643 L 178.448,282.452 L 178.177,259.872 z" />
    <path
       style="fill:#e67b7b;fill-rule:evenodd;stroke:#000000;stroke-width:1px;stroke-linecap:butt;stroke-linejoin:miter;stroke-opacity:1"
       d="M 105.419,292.068 L 105.963,314.595 L 130.323,311.337 L 129.872,288.848 z" />
    <path
       style="fill:#e67b7b;fill-rule:evenodd;stroke:#000000;stroke-width:1px;stroke-linecap:butt;stroke-linejoin:miter;stroke-opacity:1"
       d="M 32.2199,324.46 L 33.0417,346.932 L 57.6394,343.591 L 56.9122,321.157 z" />
    <path
       style="fill:#e67b7b;fill-rule:evenodd;stroke:#000000;stroke-width:1px;stroke-linecap:butt;stroke-linejoin:miter;stroke-opacity:1"
       d="M 80.8548,295.303 L 81.493,317.868 L 105.963,314.595 L 105.419,292.068 z" />
    <path
       style="fill:#e77b7b;fill-rule:evenodd;stroke:#000000;stroke-width:1px;stroke-linecap:butt;stroke-linejoin:miter;stroke-opacity:1"
       d="M 129.416,266.19 L 129.872,288.848 L 154.214,285.643 L 153.852,263.024 z" />
    <path
       style="fill:#e77b7b;fill-rule:evenodd;stroke:#000000;stroke-width:1px;stroke-linecap:butt;stroke-linejoin:miter;stroke-opacity:1"
       d="M 7.4153,327.777 L 8.3326,350.289 L 33.0417,346.932 L 32.2199,324.46 z" />
    <path
       style="fill:#e77b7b;fill-rule:evenodd;stroke:#000000;stroke-width:1px;stroke-linecap:butt;stroke-linejoin:miter;stroke-opacity:1"
       d="M 56.1795,298.552 L 56.9122,321.157 L 81.493,317.868 L 80.8548,295.303 z" />
    <path
       style="fill:#e77b7b;fill-rule:evenodd;stroke:#000000;stroke-width:1px;stroke-linecap:butt;stroke-linejoin:miter;stroke-opacity:1"
       d="M 104.87,269.371 L 105.419,292.068 L 129.872,288.848 L 129.416,266.19 z" />
    <path
       style="fill:#e77b7b;fill-rule:evenodd;stroke:#000000;stroke-width:1px;stroke-linecap:butt;stroke-linejoin:miter;stroke-opacity:1"
       d="M 31.3918,301.816 L 32.2199,324.46 L 56.9122,321.157 L 56.1795,298.552 z" />
    <path
       style="fill:#e77b7b;fill-rule:evenodd;stroke:#000000;stroke-width:1px;stroke-linecap:butt;stroke-linejoin:miter;stroke-opacity:1"
       d="M 80.2117,272.566 L 80.8548,295.303 L 105.419,292.068 L 104.87,269.371 z" />
    <path
       style="fill:#e77b7b;fill-rule:evenodd;stroke:#000000;stroke-width:1px;stroke-linecap:butt;stroke-linejoin:miter;stroke-opacity:1"
       d="M 6.49102,305.095 L 7.4153,327.777 L 32.2199,324.46 L 31.3918,301.816 z" />
    <path
       style="fill:#e77b7b;fill-rule:evenodd;stroke:#000000;stroke-width:1px;stroke-linecap:butt;stroke-linejoin:miter;stroke-opacity:1"
       d="M 55.4412,275.776 L 56.1795,298.552 L 80.8548,295.303 L 80.2117,272.566 z" />
    <path
       style="fill:#e87c7c;fill-rule:evenodd;stroke:#000000;stroke-width:1px;stroke-linecap:butt;stroke-linejoin:miter;stroke-opacity:1"
       d="M 30.5574,279 L 31.3918,301.816 L 56.1795,298.552 L 55.4412,275.776 z" />
    <path
       style="fill:#e87c7c;fill-rule:evenodd;stroke:#000000;stroke-width:1px;stroke-linecap:butt;stroke-linejoin:miter;stroke-opacity:1"
       d="M 5.55969,282.239 L 6.49102,305.095 L 31.3918,301.816 L 30.5574,279 z" />
  </g>
</svg>
