<?xml version="1.0" encoding="UTF-8" standalone="no"?>
<!-- Created with Inkscape (http://www.inkscape.org/) -->
<svg
   xmlns:dc="http://purl.org/dc/elements/1.1/"
   xmlns:cc="http://web.resource.org/cc/"
   xmlns:rdf="http://www.w3.org/1999/02/22-rdf-syntax-ns#"
   xmlns:svg="http://www.w3.org/2000/svg"
   xmlns="http://www.w3.org/2000/svg"
   xmlns:sodipodi="http://sodipodi.sourceforge.net/DTD/sodipodi-0.dtd"
   xmlns:inkscape="http://www.inkscape.org/namespaces/inkscape"
   width="744.09448819"
   height="1052.3622047"
   id="svg2"
   sodipodi:version="0.32"
   inkscape:version="0.44">
  <defs
     id="defs4" />
  <sodipodi:namedview
     id="base"
     pagecolor="#ffffff"
     bordercolor="#666666"
     borderopacity="1.0"
     gridtolerance="10000"
     guidetolerance="10"
     objecttolerance="10"
     inkscape:pageopacity="0.0"
     inkscape:pageshadow="2"
     inkscape:zoom="0.35"
     inkscape:cx="375"
     inkscape:cy="520"
     inkscape:document-units="px"
     inkscape:current-layer="layer1"
     inkscape:window-width="853"
     inkscape:window-height="573"
     inkscape:window-x="44"
     inkscape:window-y="44" />
  <metadata
     id="metadata7">
    <rdf:RDF>
      <cc:Work
         rdf:about="">
        <dc:format>image/svg+xml</dc:format>
        <dc:type
           rdf:resource="http://purl.org/dc/dcmitype/StillImage" />
      </cc:Work>
    </rdf:RDF>
  </metadata>
  <g
     inkscape:label="Layer 1"
     inkscape:groupmode="layer"
     id="layer1">
    <path
       style="fill:#e67b7b;fill-rule:evenodd;stroke:#000000;stroke-width:1px;stroke-linecap:butt;stroke-linejoin:miter;stroke-opacity:1"
       d="M 202.212,234.023 L 202.393,256.734 L 226.501,253.61 L 226.411,230.938 z" />
    <path
       style="fill:#e67b7b;fill-rule:evenodd;stroke:#000000;stroke-width:1px;stroke-linecap:butt;stroke-linejoin:miter;stroke-opacity:1"
       d="M 177.905,237.121 L 178.177,259.872 L 202.393,256.734 L 202.212,234.023 z" />
    <path
       style="fill:#e77b7b;fill-rule:evenodd;stroke:#000000;stroke-width:1px;stroke-linecap:butt;stroke-linejoin:miter;stroke-opacity:1"
       d="M 153.487,240.234 L 153.852,263.024 L 178.177,259.872 L 177.905,237.121 z" />
    <path
       style="fill:#e77b7b;fill-rule:evenodd;stroke:#000000;stroke-width:1px;stroke-linecap:butt;stroke-linejoin:miter;stroke-opacity:1"
       d="M 177.63,214.199 L 177.905,237.121 L 202.212,234.023 L 202.03,211.141 z" />
    <path
       style="fill:#e77b7b;fill-rule:evenodd;stroke:#000000;stroke-width:1px;stroke-linecap:butt;stroke-linejoin:miter;stroke-opacity:1"
       d="M 128.958,243.36 L 129.416,266.19 L 153.852,263.024 L 153.487,240.234 z" />
    <path
       style="fill:#e77b7b;fill-rule:evenodd;stroke:#000000;stroke-width:1px;stroke-linecap:butt;stroke-linejoin:miter;stroke-opacity:1"
       d="M 153.119,217.271 L 153.487,240.234 L 177.905,237.121 L 177.63,214.199 z" />
    <path
       style="fill:#e77b7b;fill-rule:evenodd;stroke:#000000;stroke-width:1px;stroke-linecap:butt;stroke-linejoin:miter;stroke-opacity:1"
       d="M 104.317,246.501 L 104.87,269.371 L 129.416,266.19 L 128.958,243.36 z" />
    <path
       style="fill:#e87c7c;fill-rule:evenodd;stroke:#000000;stroke-width:1px;stroke-linecap:butt;stroke-linejoin:miter;stroke-opacity:1"
       d="M 177.353,191.102 L 177.63,214.199 L 202.03,211.141 L 201.846,188.085 z" />
    <path
       style="fill:#e87c7c;fill-rule:evenodd;stroke:#000000;stroke-width:1px;stroke-linecap:butt;stroke-linejoin:miter;stroke-opacity:1"
       d="M 128.496,220.357 L 128.958,243.36 L 153.487,240.234 L 153.119,217.271 z" />
    <path
       style="fill:#e87c7c;fill-rule:evenodd;stroke:#000000;stroke-width:1px;stroke-linecap:butt;stroke-linejoin:miter;stroke-opacity:1"
       d="M 79.5637,249.656 L 80.2117,272.566 L 104.87,269.371 L 104.317,246.501 z" />
    <path
       style="fill:#e87c7c;fill-rule:evenodd;stroke:#000000;stroke-width:1px;stroke-linecap:butt;stroke-linejoin:miter;stroke-opacity:1"
       d="M 152.748,194.133 L 153.119,217.271 L 177.63,214.199 L 177.353,191.102 z" />
    <path
       style="fill:#e87c7c;fill-rule:evenodd;stroke:#000000;stroke-width:1px;stroke-linecap:butt;stroke-linejoin:miter;stroke-opacity:1"
       d="M 54.6972,252.826 L 55.4412,275.776 L 80.2117,272.566 L 79.5637,249.656 z" />
    <path
       style="fill:#e87c7c;fill-rule:evenodd;stroke:#000000;stroke-width:1px;stroke-linecap:butt;stroke-linejoin:miter;stroke-opacity:1"
       d="M 103.76,223.457 L 104.317,246.501 L 128.958,243.36 L 128.496,220.357 z" />
    <path
       style="fill:#e87c7c;fill-rule:evenodd;stroke:#000000;stroke-width:1px;stroke-linecap:butt;stroke-linejoin:miter;stroke-opacity:1"
       d="M 29.7166,256.01 L 30.5574,279 L 55.4412,275.776 L 54.6972,252.826 z" />
    <path
       style="fill:#e87c7c;fill-rule:evenodd;stroke:#000000;stroke-width:1px;stroke-linecap:butt;stroke-linejoin:miter;stroke-opacity:1"
       d="M 128.03,197.178 L 128.496,220.357 L 153.119,217.271 L 152.748,194.133 z" />
    <path
       style="fill:#e87c7c;fill-rule:evenodd;stroke:#000000;stroke-width:1px;stroke-linecap:butt;stroke-linejoin:miter;stroke-opacity:1"
       d="M 78.9108,226.571 L 79.5637,249.656 L 104.317,246.501 L 103.76,223.457 z" />
    <path
       style="fill:#e97c7c;fill-rule:evenodd;stroke:#000000;stroke-width:1px;stroke-linecap:butt;stroke-linejoin:miter;stroke-opacity:1"
       d="M 4.62122,259.209 L 5.55969,282.239 L 30.5574,279 L 29.7166,256.01 z" />
    <path
       style="fill:#e97c7c;fill-rule:evenodd;stroke:#000000;stroke-width:1px;stroke-linecap:butt;stroke-linejoin:miter;stroke-opacity:1"
       d="M 152.374,170.818 L 152.748,194.133 L 177.353,191.102 L 177.074,167.829 z" />
    <path
       style="fill:#e97c7c;fill-rule:evenodd;stroke:#000000;stroke-width:1px;stroke-linecap:butt;stroke-linejoin:miter;stroke-opacity:1"
       d="M 53.9476,229.7 L 54.6972,252.826 L 79.5637,249.656 L 78.9108,226.571 z" />
    <path
       style="fill:#e97c7c;fill-rule:evenodd;stroke:#000000;stroke-width:1px;stroke-linecap:butt;stroke-linejoin:miter;stroke-opacity:1"
       d="M 103.198,200.237 L 103.76,223.457 L 128.496,220.357 L 128.03,197.178 z" />
    <path
       style="fill:#e97c7c;fill-rule:evenodd;stroke:#000000;stroke-width:1px;stroke-linecap:butt;stroke-linejoin:miter;stroke-opacity:1"
       d="M 28.8694,232.843 L 29.7166,256.01 L 54.6972,252.826 L 53.9476,229.7 z" />
    <path
       style="fill:#e97c7c;fill-rule:evenodd;stroke:#000000;stroke-width:1px;stroke-linecap:butt;stroke-linejoin:miter;stroke-opacity:1"
       d="M 127.561,173.821 L 128.03,197.178 L 152.748,194.133 L 152.374,170.818 z" />
    <path
       style="fill:#e97c7c;fill-rule:evenodd;stroke:#000000;stroke-width:1px;stroke-linecap:butt;stroke-linejoin:miter;stroke-opacity:1"
       d="M 78.2529,203.31 L 78.9108,226.571 L 103.76,223.457 L 103.198,200.237 z" />
    <path
       style="fill:#e97c7c;fill-rule:evenodd;stroke:#000000;stroke-width:1px;stroke-linecap:butt;stroke-linejoin:miter;stroke-opacity:1"
       d="M 151.998,147.325 L 152.374,170.818 L 177.074,167.829 L 176.793,144.378 z" />
    <path
       style="fill:#e97c7c;fill-rule:evenodd;stroke:#000000;stroke-width:1px;stroke-linecap:butt;stroke-linejoin:miter;stroke-opacity:1"
       d="M 3.67553,236.001 L 4.62122,259.209 L 29.7166,256.01 L 28.8694,232.843 z" />
    <path
       style="fill:#e97c7c;fill-rule:evenodd;stroke:#000000;stroke-width:1px;stroke-linecap:butt;stroke-linejoin:miter;stroke-opacity:1"
       d="M 102.633,176.838 L 103.198,200.237 L 128.03,197.178 L 127.561,173.821 z" />
    <path
       style="fill:#e97c7c;fill-rule:evenodd;stroke:#000000;stroke-width:1px;stroke-linecap:butt;stroke-linejoin:miter;stroke-opacity:1"
       d="M 53.1922,206.397 L 53.9476,229.7 L 78.9108,226.571 L 78.2529,203.31 z" />
    <path
       style="fill:#ea7d7d;fill-rule:evenodd;stroke:#000000;stroke-width:1px;stroke-linecap:butt;stroke-linejoin:miter;stroke-opacity:1"
       d="M 127.088,150.285 L 127.561,173.821 L 152.374,170.818 L 151.998,147.325 z" />
    <path
       style="fill:#ea7d7d;fill-rule:evenodd;stroke:#000000;stroke-width:1px;stroke-linecap:butt;stroke-linejoin:miter;stroke-opacity:1"
       d="M 28.0157,209.498 L 28.8694,232.843 L 53.9476,229.7 L 53.1922,206.397 z" />
    <path
       style="fill:#ea7d7d;fill-rule:evenodd;stroke:#000000;stroke-width:1px;stroke-linecap:butt;stroke-linejoin:miter;stroke-opacity:1"
       d="M 77.5899,179.869 L 78.2529,203.31 L 103.198,200.237 L 102.633,176.838 z" />
    <path
       style="fill:#ea7d7d;fill-rule:evenodd;stroke:#000000;stroke-width:1px;stroke-linecap:butt;stroke-linejoin:miter;stroke-opacity:1"
       d="M 2.72254,212.614 L 3.67553,236.001 L 28.8694,232.843 L 28.0157,209.498 z" />
    <path
       style="fill:#ea7d7d;fill-rule:evenodd;stroke:#000000;stroke-width:1px;stroke-linecap:butt;stroke-linejoin:miter;stroke-opacity:1"
       d="M 102.063,153.259 L 102.633,176.838 L 127.561,173.821 L 127.088,150.285 z" />
    <path
       style="fill:#ea7d7d;fill-rule:evenodd;stroke:#000000;stroke-width:1px;stroke-linecap:butt;stroke-linejoin:miter;stroke-opacity:1"
       d="M 52.431,182.913 L 53.1922,206.397 L 78.2529,203.31 L 77.5899,179.869 z" />
    <path
       style="fill:#ea7d7d;fill-rule:evenodd;stroke:#000000;stroke-width:1px;stroke-linecap:butt;stroke-linejoin:miter;stroke-opacity:1"
       d="M 126.611,126.567 L 127.088,150.285 L 151.998,147.325 L 151.618,123.65 z" />
    <path
       style="fill:#ea7d7d;fill-rule:evenodd;stroke:#000000;stroke-width:1px;stroke-linecap:butt;stroke-linejoin:miter;stroke-opacity:1"
       d="M 27.1554,185.972 L 28.0157,209.498 L 53.1922,206.397 L 52.431,182.913 z" />
    <path
       style="fill:#ea7d7d;fill-rule:evenodd;stroke:#000000;stroke-width:1px;stroke-linecap:butt;stroke-linejoin:miter;stroke-opacity:1"
       d="M 76.9217,156.246 L 77.5899,179.869 L 102.633,176.838 L 102.063,153.259 z" />
    <path
       style="fill:#eb7d7d;fill-rule:evenodd;stroke:#000000;stroke-width:1px;stroke-linecap:butt;stroke-linejoin:miter;stroke-opacity:1"
       d="M 1.76217,189.045 L 2.72254,212.614 L 28.0157,209.498 L 27.1554,185.972 z" />
    <path
       style="fill:#eb7d7d;fill-rule:evenodd;stroke:#000000;stroke-width:1px;stroke-linecap:butt;stroke-linejoin:miter;stroke-opacity:1"
       d="M 101.488,129.497 L 102.063,153.259 L 127.088,150.285 L 126.611,126.567 z" />
    <path
       style="fill:#eb7d7d;fill-rule:evenodd;stroke:#000000;stroke-width:1px;stroke-linecap:butt;stroke-linejoin:miter;stroke-opacity:1"
       d="M 51.6639,159.248 L 52.431,182.913 L 77.5899,179.869 L 76.9217,156.246 z" />
    <path
       style="fill:#eb7d7d;fill-rule:evenodd;stroke:#000000;stroke-width:1px;stroke-linecap:butt;stroke-linejoin:miter;stroke-opacity:1"
       d="M 126.131,102.665 L 126.611,126.567 L 151.618,123.65 L 151.236,99.7921 z" />
    <path
       style="fill:#eb7d7d;fill-rule:evenodd;stroke:#000000;stroke-width:1px;stroke-linecap:butt;stroke-linejoin:miter;stroke-opacity:1"
       d="M 76.2484,132.441 L 76.9217,156.246 L 102.063,153.259 L 101.488,129.497 z" />
    <path
       style="fill:#eb7d7d;fill-rule:evenodd;stroke:#000000;stroke-width:1px;stroke-linecap:butt;stroke-linejoin:miter;stroke-opacity:1"
       d="M 26.2883,162.264 L 27.1554,185.972 L 52.431,182.913 L 51.6639,159.248 z" />
    <path
       style="fill:#eb7d7d;fill-rule:evenodd;stroke:#000000;stroke-width:1px;stroke-linecap:butt;stroke-linejoin:miter;stroke-opacity:1"
       d="M 100.909,105.551 L 101.488,129.497 L 126.611,126.567 L 126.131,102.665 z" />
    <path
       style="fill:#eb7d7d;fill-rule:evenodd;stroke:#000000;stroke-width:1px;stroke-linecap:butt;stroke-linejoin:miter;stroke-opacity:1"
       d="M 0.794315,165.293 L 1.76217,189.045 L 27.1554,185.972 L 26.2883,162.264 z" />
    <path
       style="fill:#eb7d7d;fill-rule:evenodd;stroke:#000000;stroke-width:1px;stroke-linecap:butt;stroke-linejoin:miter;stroke-opacity:1"
       d="M 50.8908,135.399 L 51.6639,159.248 L 76.9217,156.246 L 76.2484,132.441 z" />
    <path
       style="fill:#eb7d7d;fill-rule:evenodd;stroke:#000000;stroke-width:1px;stroke-linecap:butt;stroke-linejoin:miter;stroke-opacity:1"
       d="M 125.647,78.5769 L 126.131,102.665 L 151.236,99.7921 L 150.85,75.7491 z" />
    <path
       style="fill:#ec7e7e;fill-rule:evenodd;stroke:#000000;stroke-width:1px;stroke-linecap:butt;stroke-linejoin:miter;stroke-opacity:1"
       d="M 75.5699,108.45 L 76.2484,132.441 L 101.488,129.497 L 100.909,105.551 z" />
    <path
       style="fill:#ec7e7e;fill-rule:evenodd;stroke:#000000;stroke-width:1px;stroke-linecap:butt;stroke-linejoin:miter;stroke-opacity:1"
       d="M 25.4146,138.371 L 26.2883,162.264 L 51.6639,159.248 L 50.8908,135.399 z" />
    <path
       style="fill:#ec7e7e;fill-rule:evenodd;stroke:#000000;stroke-width:1px;stroke-linecap:butt;stroke-linejoin:miter;stroke-opacity:1"
       d="M 100.326,81.4178 L 100.909,105.551 L 126.131,102.665 L 125.647,78.5769 z" />
    <path
       style="fill:#ec7e7e;fill-rule:evenodd;stroke:#000000;stroke-width:1px;stroke-linecap:butt;stroke-linejoin:miter;stroke-opacity:1"
       d="M -0.181098,141.356 L 0.794315,165.293 L 26.2883,162.264 L 25.4146,138.371 z" />
    <path
       style="fill:#ec7e7e;fill-rule:evenodd;stroke:#000000;stroke-width:1px;stroke-linecap:butt;stroke-linejoin:miter;stroke-opacity:1"
       d="M 50.1117,111.364 L 50.8908,135.399 L 76.2484,132.441 L 75.5699,108.45 z" />
    <path
       style="fill:#ec7e7e;fill-rule:evenodd;stroke:#000000;stroke-width:1px;stroke-linecap:butt;stroke-linejoin:miter;stroke-opacity:1"
       d="M 74.886,84.2721 L 75.5699,108.45 L 100.909,105.551 L 100.326,81.4178 z" />
    <path
       style="fill:#ec7e7e;fill-rule:evenodd;stroke:#000000;stroke-width:1px;stroke-linecap:butt;stroke-linejoin:miter;stroke-opacity:1"
       d="M 24.5339,114.29 L 25.4146,138.371 L 50.8908,135.399 L 50.1117,111.364 z" />
    <path
       style="fill:#ec7e7e;fill-rule:evenodd;stroke:#000000;stroke-width:1px;stroke-linecap:butt;stroke-linejoin:miter;stroke-opacity:1"
       d="M 99.738,57.0958 L 100.326,81.4178 L 125.647,78.5769 L 125.159,54.3007 z" />
    <path
       style="fill:#ec7e7e;fill-rule:evenodd;stroke:#000000;stroke-width:1px;stroke-linecap:butt;stroke-linejoin:miter;stroke-opacity:1"
       d="M 49.3265,87.1398 L 50.1117,111.364 L 75.5699,108.45 L 74.886,84.2721 z" />
    <path
       style="fill:#ec7e7e;fill-rule:evenodd;stroke:#000000;stroke-width:1px;stroke-linecap:butt;stroke-linejoin:miter;stroke-opacity:1"
       d="M -1.16416,117.231 L -0.181098,141.356 L 25.4146,138.371 L 24.5339,114.29 z" />
    <path
       style="fill:#ed7e7e;fill-rule:evenodd;stroke:#000000;stroke-width:1px;stroke-linecap:butt;stroke-linejoin:miter;stroke-opacity:1"
       d="M 74.1968,59.904 L 74.886,84.2721 L 100.326,81.4178 L 99.738,57.0958 z" />
    <path
       style="fill:#ed7e7e;fill-rule:evenodd;stroke:#000000;stroke-width:1px;stroke-linecap:butt;stroke-linejoin:miter;stroke-opacity:1"
       d="M 23.6464,90.021 L 24.5339,114.29 L 50.1117,111.364 L 49.3265,87.1398 z" />
    <path
       style="fill:#ed7e7e;fill-rule:evenodd;stroke:#000000;stroke-width:1px;stroke-linecap:butt;stroke-linejoin:miter;stroke-opacity:1"
       d="M 99.1454,32.5825 L 99.738,57.0958 L 125.159,54.3007 L 124.668,29.8342 z" />
    <path
       style="fill:#ed7e7e;fill-rule:evenodd;stroke:#000000;stroke-width:1px;stroke-linecap:butt;stroke-linejoin:miter;stroke-opacity:1"
       d="M 48.5351,62.7254 L 49.3265,87.1398 L 74.886,84.2721 L 74.1968,59.904 z" />
    <path
       style="fill:#ed7e7e;fill-rule:evenodd;stroke:#000000;stroke-width:1px;stroke-linecap:butt;stroke-linejoin:miter;stroke-opacity:1"
       d="M -2.15496,92.9158 L -1.16416,117.231 L 24.5339,114.29 L 23.6464,90.021 z" />
    <path
       style="fill:#ed7e7e;fill-rule:evenodd;stroke:#000000;stroke-width:1px;stroke-linecap:butt;stroke-linejoin:miter;stroke-opacity:1"
       d="M 73.5022,35.3438 L 74.1968,59.904 L 99.738,57.0958 L 99.1454,32.5825 z" />
    <path
       style="fill:#ed7e7e;fill-rule:evenodd;stroke:#000000;stroke-width:1px;stroke-linecap:butt;stroke-linejoin:miter;stroke-opacity:1"
       d="M 22.7519,65.5602 L 23.6464,90.021 L 49.3265,87.1398 L 48.5351,62.7254 z" />
    <path
       style="fill:#ee7f7f;fill-rule:evenodd;stroke:#000000;stroke-width:1px;stroke-linecap:butt;stroke-linejoin:miter;stroke-opacity:1"
       d="M 47.7374,38.1183 L 48.5351,62.7254 L 74.1968,59.904 L 73.5022,35.3438 z" />
    <path
       style="fill:#ee7f7f;fill-rule:evenodd;stroke:#000000;stroke-width:1px;stroke-linecap:butt;stroke-linejoin:miter;stroke-opacity:1"
       d="M -3.1536,68.4085 L -2.15496,92.9158 L 23.6464,90.021 L 22.7519,65.5602 z" />
    <path
       style="fill:#ee7f7f;fill-rule:evenodd;stroke:#000000;stroke-width:1px;stroke-linecap:butt;stroke-linejoin:miter;stroke-opacity:1"
       d="M 21.8503,40.9058 L 22.7519,65.5602 L 48.5351,62.7254 L 47.7374,38.1183 z" />
    <path
       style="fill:#ee7f7f;fill-rule:evenodd;stroke:#000000;stroke-width:1px;stroke-linecap:butt;stroke-linejoin:miter;stroke-opacity:1"
       d="M -4.16016,43.7067 L -3.1536,68.4085 L 22.7519,65.5602 L 21.8503,40.9058 z" />
  </g>
</svg>
