<?xml version="1.0" encoding="UTF-8" standalone="no"?>
<!-- Created with Inkscape (http://www.inkscape.org/) -->
<svg
   xmlns:dc="http://purl.org/dc/elements/1.1/"
   xmlns:cc="http://web.resource.org/cc/"
   xmlns:rdf="http://www.w3.org/1999/02/22-rdf-syntax-ns#"
   xmlns:svg="http://www.w3.org/2000/svg"
   xmlns="http://www.w3.org/2000/svg"
   xmlns:sodipodi="http://sodipodi.sourceforge.net/DTD/sodipodi-0.dtd"
   xmlns:inkscape="http://www.inkscape.org/namespaces/inkscape"
   width="744.09448819"
   height="1052.3622047"
   id="svg2"
   sodipodi:version="0.32"
   inkscape:version="0.44">
  <defs
     id="defs4" />
  <sodipodi:namedview
     id="base"
     pagecolor="#ffffff"
     bordercolor="#666666"
     borderopacity="1.0"
     gridtolerance="10000"
     guidetolerance="10"
     objecttolerance="10"
     inkscape:pageopacity="0.0"
     inkscape:pageshadow="2"
     inkscape:zoom="0.35"
     inkscape:cx="375"
     inkscape:cy="520"
     inkscape:document-units="px"
     inkscape:current-layer="layer1"
     inkscape:window-width="853"
     inkscape:window-height="573"
     inkscape:window-x="44"
     inkscape:window-y="44" />
  <metadata
     id="metadata7">
    <rdf:RDF>
      <cc:Work
         rdf:about="">
        <dc:format>image/svg+xml</dc:format>
        <dc:type
           rdf:resource="http://purl.org/dc/dcmitype/StillImage" />
      </cc:Work>
    </rdf:RDF>
  </metadata>
  <g
     inkscape:label="Layer 1"
     inkscape:groupmode="layer"
     id="layer1">
    <path
       style="fill:#dc7676;fill-rule:evenodd;stroke:#000000;stroke-width:1px;stroke-linecap:butt;stroke-linejoin:miter;stroke-opacity:1"
       d="M 455.022,416.579 L 454.3,437.315 L 476.466,433.993 L 477.265,413.289 z" />
    <path
       style="fill:#dc7676;fill-rule:evenodd;stroke:#000000;stroke-width:1px;stroke-linecap:butt;stroke-linejoin:miter;stroke-opacity:1"
       d="M 432.684,419.884 L 432.04,440.652 L 454.3,437.315 L 455.022,416.579 z" />
    <path
       style="fill:#dc7676;fill-rule:evenodd;stroke:#000000;stroke-width:1px;stroke-linecap:butt;stroke-linejoin:miter;stroke-opacity:1"
       d="M 455.748,395.695 L 455.022,416.579 L 477.265,413.289 L 478.069,392.438 z" />
    <path
       style="fill:#dc7676;fill-rule:evenodd;stroke:#000000;stroke-width:1px;stroke-linecap:butt;stroke-linejoin:miter;stroke-opacity:1"
       d="M 410.251,423.202 L 409.685,444.003 L 432.04,440.652 L 432.684,419.884 z" />
    <path
       style="fill:#dd7676;fill-rule:evenodd;stroke:#000000;stroke-width:1px;stroke-linecap:butt;stroke-linejoin:miter;stroke-opacity:1"
       d="M 433.333,398.967 L 432.684,419.884 L 455.022,416.579 L 455.748,395.695 z" />
    <path
       style="fill:#dd7676;fill-rule:evenodd;stroke:#000000;stroke-width:1px;stroke-linecap:butt;stroke-linejoin:miter;stroke-opacity:1"
       d="M 387.722,426.535 L 387.235,447.369 L 409.685,444.003 L 410.251,423.202 z" />
    <path
       style="fill:#dd7676;fill-rule:evenodd;stroke:#000000;stroke-width:1px;stroke-linecap:butt;stroke-linejoin:miter;stroke-opacity:1"
       d="M 456.48,374.663 L 455.748,395.695 L 478.069,392.438 L 478.879,371.438 z" />
    <path
       style="fill:#dd7676;fill-rule:evenodd;stroke:#000000;stroke-width:1px;stroke-linecap:butt;stroke-linejoin:miter;stroke-opacity:1"
       d="M 410.821,402.253 L 410.251,423.202 L 432.684,419.884 L 433.333,398.967 z" />
    <path
       style="fill:#dd7676;fill-rule:evenodd;stroke:#000000;stroke-width:1px;stroke-linecap:butt;stroke-linejoin:miter;stroke-opacity:1"
       d="M 365.097,429.882 L 364.689,450.748 L 387.235,447.369 L 387.722,426.535 z" />
    <path
       style="fill:#dd7676;fill-rule:evenodd;stroke:#000000;stroke-width:1px;stroke-linecap:butt;stroke-linejoin:miter;stroke-opacity:1"
       d="M 433.986,377.901 L 433.333,398.967 L 455.748,395.695 L 456.48,374.663 z" />
    <path
       style="fill:#dd7676;fill-rule:evenodd;stroke:#000000;stroke-width:1px;stroke-linecap:butt;stroke-linejoin:miter;stroke-opacity:1"
       d="M 388.213,405.552 L 387.722,426.535 L 410.251,423.202 L 410.821,402.253 z" />
    <path
       style="fill:#dd7676;fill-rule:evenodd;stroke:#000000;stroke-width:1px;stroke-linecap:butt;stroke-linejoin:miter;stroke-opacity:1"
       d="M 457.218,353.479 L 456.48,374.663 L 478.879,371.438 L 479.694,350.289 z" />
    <path
       style="fill:#de7777;fill-rule:evenodd;stroke:#000000;stroke-width:1px;stroke-linecap:butt;stroke-linejoin:miter;stroke-opacity:1"
       d="M 342.375,433.244 L 342.047,454.142 L 364.689,450.748 L 365.097,429.882 z" />
    <path
       style="fill:#de7777;fill-rule:evenodd;stroke:#000000;stroke-width:1px;stroke-linecap:butt;stroke-linejoin:miter;stroke-opacity:1"
       d="M 411.396,381.153 L 410.821,402.253 L 433.333,398.967 L 433.986,377.901 z" />
    <path
       style="fill:#de7777;fill-rule:evenodd;stroke:#000000;stroke-width:1px;stroke-linecap:butt;stroke-linejoin:miter;stroke-opacity:1"
       d="M 365.508,408.866 L 365.097,429.882 L 387.722,426.535 L 388.213,405.552 z" />
    <path
       style="fill:#de7777;fill-rule:evenodd;stroke:#000000;stroke-width:1px;stroke-linecap:butt;stroke-linejoin:miter;stroke-opacity:1"
       d="M 434.645,356.684 L 433.986,377.901 L 456.48,374.663 L 457.218,353.479 z" />
    <path
       style="fill:#de7777;fill-rule:evenodd;stroke:#000000;stroke-width:1px;stroke-linecap:butt;stroke-linejoin:miter;stroke-opacity:1"
       d="M 319.554,436.62 L 319.307,457.551 L 342.047,454.142 L 342.375,433.244 z" />
    <path
       style="fill:#de7777;fill-rule:evenodd;stroke:#000000;stroke-width:1px;stroke-linecap:butt;stroke-linejoin:miter;stroke-opacity:1"
       d="M 388.708,384.419 L 388.213,405.552 L 410.821,402.253 L 411.396,381.153 z" />
    <path
       style="fill:#de7777;fill-rule:evenodd;stroke:#000000;stroke-width:1px;stroke-linecap:butt;stroke-linejoin:miter;stroke-opacity:1"
       d="M 342.705,412.195 L 342.375,433.244 L 365.097,429.882 L 365.508,408.866 z" />
    <path
       style="fill:#de7777;fill-rule:evenodd;stroke:#000000;stroke-width:1px;stroke-linecap:butt;stroke-linejoin:miter;stroke-opacity:1"
       d="M 411.974,359.902 L 411.396,381.153 L 433.986,377.901 L 434.645,356.684 z" />
    <path
       style="fill:#de7777;fill-rule:evenodd;stroke:#000000;stroke-width:1px;stroke-linecap:butt;stroke-linejoin:miter;stroke-opacity:1"
       d="M 296.635,440.01 L 296.47,460.975 L 319.307,457.551 L 319.554,436.62 z" />
    <path
       style="fill:#de7777;fill-rule:evenodd;stroke:#000000;stroke-width:1px;stroke-linecap:butt;stroke-linejoin:miter;stroke-opacity:1"
       d="M 365.922,387.7 L 365.508,408.866 L 388.213,405.552 L 388.708,384.419 z" />
    <path
       style="fill:#df7777;fill-rule:evenodd;stroke:#000000;stroke-width:1px;stroke-linecap:butt;stroke-linejoin:miter;stroke-opacity:1"
       d="M 435.307,335.314 L 434.645,356.684 L 457.218,353.479 L 457.96,332.144 z" />
    <path
       style="fill:#df7777;fill-rule:evenodd;stroke:#000000;stroke-width:1px;stroke-linecap:butt;stroke-linejoin:miter;stroke-opacity:1"
       d="M 319.803,415.537 L 319.554,436.62 L 342.375,433.244 L 342.705,412.195 z" />
    <path
       style="fill:#df7777;fill-rule:evenodd;stroke:#000000;stroke-width:1px;stroke-linecap:butt;stroke-linejoin:miter;stroke-opacity:1"
       d="M 273.618,443.415 L 273.535,464.413 L 296.47,460.975 L 296.635,440.01 z" />
    <path
       style="fill:#df7777;fill-rule:evenodd;stroke:#000000;stroke-width:1px;stroke-linecap:butt;stroke-linejoin:miter;stroke-opacity:1"
       d="M 389.205,363.134 L 388.708,384.419 L 411.396,381.153 L 411.974,359.902 z" />
    <path
       style="fill:#df7777;fill-rule:evenodd;stroke:#000000;stroke-width:1px;stroke-linecap:butt;stroke-linejoin:miter;stroke-opacity:1"
       d="M 343.037,390.994 L 342.705,412.195 L 365.508,408.866 L 365.922,387.7 z" />
    <path
       style="fill:#df7777;fill-rule:evenodd;stroke:#000000;stroke-width:1px;stroke-linecap:butt;stroke-linejoin:miter;stroke-opacity:1"
       d="M 412.556,338.497 L 411.974,359.902 L 434.645,356.684 L 435.307,335.314 z" />
    <path
       style="fill:#df7777;fill-rule:evenodd;stroke:#000000;stroke-width:1px;stroke-linecap:butt;stroke-linejoin:miter;stroke-opacity:1"
       d="M 296.802,418.895 L 296.635,440.01 L 319.554,436.62 L 319.803,415.537 z" />
    <path
       style="fill:#df7777;fill-rule:evenodd;stroke:#000000;stroke-width:1px;stroke-linecap:butt;stroke-linejoin:miter;stroke-opacity:1"
       d="M 250.5,446.835 L 250.5,467.866 L 273.535,464.413 L 273.618,443.415 z" />
    <path
       style="fill:#df7777;fill-rule:evenodd;stroke:#000000;stroke-width:1px;stroke-linecap:butt;stroke-linejoin:miter;stroke-opacity:1"
       d="M 366.338,366.38 L 365.922,387.7 L 388.708,384.419 L 389.205,363.134 z" />
    <path
       style="fill:#df7777;fill-rule:evenodd;stroke:#000000;stroke-width:1px;stroke-linecap:butt;stroke-linejoin:miter;stroke-opacity:1"
       d="M 320.053,394.303 L 319.803,415.537 L 342.705,412.195 L 343.037,390.994 z" />
    <path
       style="fill:#df7777;fill-rule:evenodd;stroke:#000000;stroke-width:1px;stroke-linecap:butt;stroke-linejoin:miter;stroke-opacity:1"
       d="M 273.701,422.266 L 273.618,443.415 L 296.635,440.01 L 296.802,418.895 z" />
    <path
       style="fill:#df7777;fill-rule:evenodd;stroke:#000000;stroke-width:1px;stroke-linecap:butt;stroke-linejoin:miter;stroke-opacity:1"
       d="M 389.707,341.694 L 389.205,363.134 L 411.974,359.902 L 412.556,338.497 z" />
    <path
       style="fill:#df7777;fill-rule:evenodd;stroke:#000000;stroke-width:1px;stroke-linecap:butt;stroke-linejoin:miter;stroke-opacity:1"
       d="M 227.282,450.27 L 227.366,471.334 L 250.5,467.866 L 250.5,446.835 z" />
    <path
       style="fill:#e07878;fill-rule:evenodd;stroke:#000000;stroke-width:1px;stroke-linecap:butt;stroke-linejoin:miter;stroke-opacity:1"
       d="M 343.372,369.64 L 343.037,390.994 L 365.922,387.7 L 366.338,366.38 z" />
    <path
       style="fill:#e07878;fill-rule:evenodd;stroke:#000000;stroke-width:1px;stroke-linecap:butt;stroke-linejoin:miter;stroke-opacity:1"
       d="M 413.143,316.938 L 412.556,338.497 L 435.307,335.314 L 435.975,313.789 z" />
    <path
       style="fill:#e07878;fill-rule:evenodd;stroke:#000000;stroke-width:1px;stroke-linecap:butt;stroke-linejoin:miter;stroke-opacity:1"
       d="M 296.969,397.626 L 296.802,418.895 L 319.803,415.537 L 320.053,394.303 z" />
    <path
       style="fill:#e07878;fill-rule:evenodd;stroke:#000000;stroke-width:1px;stroke-linecap:butt;stroke-linejoin:miter;stroke-opacity:1"
       d="M 203.963,453.72 L 204.131,474.816 L 227.366,471.334 L 227.282,450.27 z" />
    <path
       style="fill:#e07878;fill-rule:evenodd;stroke:#000000;stroke-width:1px;stroke-linecap:butt;stroke-linejoin:miter;stroke-opacity:1"
       d="M 250.5,425.653 L 250.5,446.835 L 273.618,443.415 L 273.701,422.266 z" />
    <path
       style="fill:#e07878;fill-rule:evenodd;stroke:#000000;stroke-width:1px;stroke-linecap:butt;stroke-linejoin:miter;stroke-opacity:1"
       d="M 366.758,344.906 L 366.338,366.38 L 389.205,363.134 L 389.707,341.694 z" />
    <path
       style="fill:#e07878;fill-rule:evenodd;stroke:#000000;stroke-width:1px;stroke-linecap:butt;stroke-linejoin:miter;stroke-opacity:1"
       d="M 320.305,372.914 L 320.053,394.303 L 343.037,390.994 L 343.372,369.64 z" />
    <path
       style="fill:#e07878;fill-rule:evenodd;stroke:#000000;stroke-width:1px;stroke-linecap:butt;stroke-linejoin:miter;stroke-opacity:1"
       d="M 390.212,320.099 L 389.707,341.694 L 412.556,338.497 L 413.143,316.938 z" />
    <path
       style="fill:#e07878;fill-rule:evenodd;stroke:#000000;stroke-width:1px;stroke-linecap:butt;stroke-linejoin:miter;stroke-opacity:1"
       d="M 273.785,400.964 L 273.701,422.266 L 296.802,418.895 L 296.969,397.626 z" />
    <path
       style="fill:#e07878;fill-rule:evenodd;stroke:#000000;stroke-width:1px;stroke-linecap:butt;stroke-linejoin:miter;stroke-opacity:1"
       d="M 227.198,429.054 L 227.282,450.27 L 250.5,446.835 L 250.5,425.653 z" />
    <path
       style="fill:#e07878;fill-rule:evenodd;stroke:#000000;stroke-width:1px;stroke-linecap:butt;stroke-linejoin:miter;stroke-opacity:1"
       d="M 343.709,348.131 L 343.372,369.64 L 366.338,366.38 L 366.758,344.906 z" />
    <path
       style="fill:#e07878;fill-rule:evenodd;stroke:#000000;stroke-width:1px;stroke-linecap:butt;stroke-linejoin:miter;stroke-opacity:1"
       d="M 297.138,376.203 L 296.969,397.626 L 320.053,394.303 L 320.305,372.914 z" />
    <path
       style="fill:#e07878;fill-rule:evenodd;stroke:#000000;stroke-width:1px;stroke-linecap:butt;stroke-linejoin:miter;stroke-opacity:1"
       d="M 250.5,404.316 L 250.5,425.653 L 273.701,422.266 L 273.785,400.964 z" />
    <path
       style="fill:#e07878;fill-rule:evenodd;stroke:#000000;stroke-width:1px;stroke-linecap:butt;stroke-linejoin:miter;stroke-opacity:1"
       d="M 203.794,432.47 L 203.963,453.72 L 227.282,450.27 L 227.198,429.054 z" />
    <path
       style="fill:#e07878;fill-rule:evenodd;stroke:#000000;stroke-width:1px;stroke-linecap:butt;stroke-linejoin:miter;stroke-opacity:1"
       d="M 367.181,323.275 L 366.758,344.906 L 389.707,341.694 L 390.212,320.099 z" />
    <path
       style="fill:#e17878;fill-rule:evenodd;stroke:#000000;stroke-width:1px;stroke-linecap:butt;stroke-linejoin:miter;stroke-opacity:1"
       d="M 320.559,351.37 L 320.305,372.914 L 343.372,369.64 L 343.709,348.131 z" />
    <path
       style="fill:#e17878;fill-rule:evenodd;stroke:#000000;stroke-width:1px;stroke-linecap:butt;stroke-linejoin:miter;stroke-opacity:1"
       d="M 273.87,379.506 L 273.785,400.964 L 296.969,397.626 L 297.138,376.203 z" />
    <path
       style="fill:#e17878;fill-rule:evenodd;stroke:#000000;stroke-width:1px;stroke-linecap:butt;stroke-linejoin:miter;stroke-opacity:1"
       d="M 227.113,407.683 L 227.198,429.054 L 250.5,425.653 L 250.5,404.316 z" />
    <path
       style="fill:#e17878;fill-rule:evenodd;stroke:#000000;stroke-width:1px;stroke-linecap:butt;stroke-linejoin:miter;stroke-opacity:1"
       d="M 344.049,326.465 L 343.709,348.131 L 366.758,344.906 L 367.181,323.275 z" />
    <path
       style="fill:#e17878;fill-rule:evenodd;stroke:#000000;stroke-width:1px;stroke-linecap:butt;stroke-linejoin:miter;stroke-opacity:1"
       d="M 297.308,354.624 L 297.138,376.203 L 320.305,372.914 L 320.559,351.37 z" />
    <path
       style="fill:#e17878;fill-rule:evenodd;stroke:#000000;stroke-width:1px;stroke-linecap:butt;stroke-linejoin:miter;stroke-opacity:1"
       d="M 367.606,301.487 L 367.181,323.275 L 390.212,320.099 L 390.721,298.347 z" />
    <path
       style="fill:#e17878;fill-rule:evenodd;stroke:#000000;stroke-width:1px;stroke-linecap:butt;stroke-linejoin:miter;stroke-opacity:1"
       d="M 250.5,382.823 L 250.5,404.316 L 273.785,400.964 L 273.87,379.506 z" />
    <path
       style="fill:#e17878;fill-rule:evenodd;stroke:#000000;stroke-width:1px;stroke-linecap:butt;stroke-linejoin:miter;stroke-opacity:1"
       d="M 203.623,411.064 L 203.794,432.47 L 227.198,429.054 L 227.113,407.683 z" />
    <path
       style="fill:#e17878;fill-rule:evenodd;stroke:#000000;stroke-width:1px;stroke-linecap:butt;stroke-linejoin:miter;stroke-opacity:1"
       d="M 320.815,329.669 L 320.559,351.37 L 343.709,348.131 L 344.049,326.465 z" />
    <path
       style="fill:#e17878;fill-rule:evenodd;stroke:#000000;stroke-width:1px;stroke-linecap:butt;stroke-linejoin:miter;stroke-opacity:1"
       d="M 273.956,357.891 L 273.87,379.506 L 297.138,376.203 L 297.308,354.624 z" />
    <path
       style="fill:#e17878;fill-rule:evenodd;stroke:#000000;stroke-width:1px;stroke-linecap:butt;stroke-linejoin:miter;stroke-opacity:1"
       d="M 227.027,386.155 L 227.113,407.683 L 250.5,404.316 L 250.5,382.823 z" />
    <path
       style="fill:#e17878;fill-rule:evenodd;stroke:#000000;stroke-width:1px;stroke-linecap:butt;stroke-linejoin:miter;stroke-opacity:1"
       d="M 344.391,304.64 L 344.049,326.465 L 367.181,323.275 L 367.606,301.487 z" />
    <path
       style="fill:#e27979;fill-rule:evenodd;stroke:#000000;stroke-width:1px;stroke-linecap:butt;stroke-linejoin:miter;stroke-opacity:1"
       d="M 297.48,332.886 L 297.308,354.624 L 320.559,351.37 L 320.815,329.669 z" />
    <path
       style="fill:#e27979;fill-rule:evenodd;stroke:#000000;stroke-width:1px;stroke-linecap:butt;stroke-linejoin:miter;stroke-opacity:1"
       d="M 250.5,361.173 L 250.5,382.823 L 273.87,379.506 L 273.956,357.891 z" />
    <path
       style="fill:#e27979;fill-rule:evenodd;stroke:#000000;stroke-width:1px;stroke-linecap:butt;stroke-linejoin:miter;stroke-opacity:1"
       d="M 321.073,307.808 L 320.815,329.669 L 344.049,326.465 L 344.391,304.64 z" />
    <path
       style="fill:#e27979;fill-rule:evenodd;stroke:#000000;stroke-width:1px;stroke-linecap:butt;stroke-linejoin:miter;stroke-opacity:1"
       d="M 274.042,336.118 L 273.956,357.891 L 297.308,354.624 L 297.48,332.886 z" />
    <path
       style="fill:#e27979;fill-rule:evenodd;stroke:#000000;stroke-width:1px;stroke-linecap:butt;stroke-linejoin:miter;stroke-opacity:1"
       d="M 226.941,364.47 L 227.027,386.155 L 250.5,382.823 L 250.5,361.173 z" />
    <path
       style="fill:#e27979;fill-rule:evenodd;stroke:#000000;stroke-width:1px;stroke-linecap:butt;stroke-linejoin:miter;stroke-opacity:1"
       d="M 344.735,282.656 L 344.391,304.64 L 367.606,301.487 L 368.035,279.539 z" />
    <path
       style="fill:#e27979;fill-rule:evenodd;stroke:#000000;stroke-width:1px;stroke-linecap:butt;stroke-linejoin:miter;stroke-opacity:1"
       d="M 297.652,310.989 L 297.48,332.886 L 320.815,329.669 L 321.073,307.808 z" />
    <path
       style="fill:#e27979;fill-rule:evenodd;stroke:#000000;stroke-width:1px;stroke-linecap:butt;stroke-linejoin:miter;stroke-opacity:1"
       d="M 250.5,339.364 L 250.5,361.173 L 273.956,357.891 L 274.042,336.118 z" />
    <path
       style="fill:#e27979;fill-rule:evenodd;stroke:#000000;stroke-width:1px;stroke-linecap:butt;stroke-linejoin:miter;stroke-opacity:1"
       d="M 321.333,285.786 L 321.073,307.808 L 344.391,304.64 L 344.735,282.656 z" />
    <path
       style="fill:#e37979;fill-rule:evenodd;stroke:#000000;stroke-width:1px;stroke-linecap:butt;stroke-linejoin:miter;stroke-opacity:1"
       d="M 274.128,314.185 L 274.042,336.118 L 297.48,332.886 L 297.652,310.989 z" />
    <path
       style="fill:#e37979;fill-rule:evenodd;stroke:#000000;stroke-width:1px;stroke-linecap:butt;stroke-linejoin:miter;stroke-opacity:1"
       d="M 226.854,342.625 L 226.941,364.47 L 250.5,361.173 L 250.5,339.364 z" />
    <path
       style="fill:#e37979;fill-rule:evenodd;stroke:#000000;stroke-width:1px;stroke-linecap:butt;stroke-linejoin:miter;stroke-opacity:1"
       d="M 297.826,288.931 L 297.652,310.989 L 321.073,307.808 L 321.333,285.786 z" />
    <path
       style="fill:#e37979;fill-rule:evenodd;stroke:#000000;stroke-width:1px;stroke-linecap:butt;stroke-linejoin:miter;stroke-opacity:1"
       d="M 250.5,317.394 L 250.5,339.364 L 274.042,336.118 L 274.128,314.185 z" />
    <path
       style="fill:#e37979;fill-rule:evenodd;stroke:#000000;stroke-width:1px;stroke-linecap:butt;stroke-linejoin:miter;stroke-opacity:1"
       d="M 274.216,292.089 L 274.128,314.185 L 297.652,310.989 L 297.826,288.931 z" />
    <path
       style="fill:#e37979;fill-rule:evenodd;stroke:#000000;stroke-width:1px;stroke-linecap:butt;stroke-linejoin:miter;stroke-opacity:1"
       d="M 298.001,266.709 L 297.826,288.931 L 321.333,285.786 L 321.594,263.602 z" />
    <path
       style="fill:#e47a7a;fill-rule:evenodd;stroke:#000000;stroke-width:1px;stroke-linecap:butt;stroke-linejoin:miter;stroke-opacity:1"
       d="M 250.5,295.261 L 250.5,317.394 L 274.128,314.185 L 274.216,292.089 z" />
    <path
       style="fill:#e47a7a;fill-rule:evenodd;stroke:#000000;stroke-width:1px;stroke-linecap:butt;stroke-linejoin:miter;stroke-opacity:1"
       d="M 274.304,269.829 L 274.216,292.089 L 297.826,288.931 L 298.001,266.709 z" />
    <path
       style="fill:#e47a7a;fill-rule:evenodd;stroke:#000000;stroke-width:1px;stroke-linecap:butt;stroke-linejoin:miter;stroke-opacity:1"
       d="M 250.5,272.964 L 250.5,295.261 L 274.216,292.089 L 274.304,269.829 z" />
    <path
       style="fill:#e47a7a;fill-rule:evenodd;stroke:#000000;stroke-width:1px;stroke-linecap:butt;stroke-linejoin:miter;stroke-opacity:1"
       d="M 274.392,247.404 L 274.304,269.829 L 298.001,266.709 L 298.178,244.322 z" />
    <path
       style="fill:#e57a7a;fill-rule:evenodd;stroke:#000000;stroke-width:1px;stroke-linecap:butt;stroke-linejoin:miter;stroke-opacity:1"
       d="M 250.5,250.5 L 250.5,272.964 L 274.304,269.829 L 274.392,247.404 z" />
  </g>
</svg>
