<?xml version="1.0" encoding="UTF-8" standalone="no"?>
<!-- Created with Inkscape (http://www.inkscape.org/) -->
<svg
   xmlns:dc="http://purl.org/dc/elements/1.1/"
   xmlns:cc="http://web.resource.org/cc/"
   xmlns:rdf="http://www.w3.org/1999/02/22-rdf-syntax-ns#"
   xmlns:svg="http://www.w3.org/2000/svg"
   xmlns="http://www.w3.org/2000/svg"
   xmlns:sodipodi="http://sodipodi.sourceforge.net/DTD/sodipodi-0.dtd"
   xmlns:inkscape="http://www.inkscape.org/namespaces/inkscape"
   width="744.09448819"
   height="1052.3622047"
   id="svg2"
   sodipodi:version="0.32"
   inkscape:version="0.44">
  <defs
     id="defs4" />
  <sodipodi:namedview
     id="base"
     pagecolor="#ffffff"
     bordercolor="#666666"
     borderopacity="1.0"
     gridtolerance="10000"
     guidetolerance="10"
     objecttolerance="10"
     inkscape:pageopacity="0.0"
     inkscape:pageshadow="2"
     inkscape:zoom="0.35"
     inkscape:cx="375"
     inkscape:cy="520"
     inkscape:document-units="px"
     inkscape:current-layer="layer1"
     inkscape:window-width="853"
     inkscape:window-height="573"
     inkscape:window-x="44"
     inkscape:window-y="44" />
  <metadata
     id="metadata7">
    <rdf:RDF>
      <cc:Work
         rdf:about="">
        <dc:format>image/svg+xml</dc:format>
        <dc:type
           rdf:resource="http://purl.org/dc/dcmitype/StillImage" />
      </cc:Work>
    </rdf:RDF>
  </metadata>
  <g
     inkscape:label="Layer 1"
     inkscape:groupmode="layer"
     id="layer1">
    <path
       style="fill:#e67b7b;fill-rule:evenodd;stroke:#000000;stroke-width:1px;stroke-linecap:butt;stroke-linejoin:miter;stroke-opacity:1"
       d="M 226.411,230.938 L 226.501,253.61 L 250.5,250.5 L 250.5,227.868 z" />
    <path
       style="fill:#e67b7b;fill-rule:evenodd;stroke:#000000;stroke-width:1px;stroke-linecap:butt;stroke-linejoin:miter;stroke-opacity:1"
       d="M 250.5,205.066 L 250.5,227.868 L 274.481,224.811 L 274.571,202.049 z" />
    <path
       style="fill:#e67b7b;fill-rule:evenodd;stroke:#000000;stroke-width:1px;stroke-linecap:butt;stroke-linejoin:miter;stroke-opacity:1"
       d="M 274.662,179.115 L 274.571,202.049 L 298.535,199.045 L 298.715,176.152 z" />
    <path
       style="fill:#e67b7b;fill-rule:evenodd;stroke:#000000;stroke-width:1px;stroke-linecap:butt;stroke-linejoin:miter;stroke-opacity:1"
       d="M 226.32,208.096 L 226.411,230.938 L 250.5,227.868 L 250.5,205.066 z" />
    <path
       style="fill:#e67b7b;fill-rule:evenodd;stroke:#000000;stroke-width:1px;stroke-linecap:butt;stroke-linejoin:miter;stroke-opacity:1"
       d="M 298.897,153.086 L 298.715,176.152 L 322.66,173.202 L 322.932,150.177 z" />
    <path
       style="fill:#e77b7b;fill-rule:evenodd;stroke:#000000;stroke-width:1px;stroke-linecap:butt;stroke-linejoin:miter;stroke-opacity:1"
       d="M 323.205,126.978 L 322.932,150.177 L 346.858,147.282 L 347.221,124.124 z" />
    <path
       style="fill:#e77b7b;fill-rule:evenodd;stroke:#000000;stroke-width:1px;stroke-linecap:butt;stroke-linejoin:miter;stroke-opacity:1"
       d="M 250.5,182.091 L 250.5,205.066 L 274.571,202.049 L 274.662,179.115 z" />
    <path
       style="fill:#e77b7b;fill-rule:evenodd;stroke:#000000;stroke-width:1px;stroke-linecap:butt;stroke-linejoin:miter;stroke-opacity:1"
       d="M 347.587,100.792 L 347.221,124.124 L 371.128,121.283 L 371.584,97.9926 z" />
    <path
       style="fill:#e77b7b;fill-rule:evenodd;stroke:#000000;stroke-width:1px;stroke-linecap:butt;stroke-linejoin:miter;stroke-opacity:1"
       d="M 202.03,211.141 L 202.212,234.023 L 226.411,230.938 L 226.32,208.096 z" />
    <path
       style="fill:#e77b7b;fill-rule:evenodd;stroke:#000000;stroke-width:1px;stroke-linecap:butt;stroke-linejoin:miter;stroke-opacity:1"
       d="M 274.753,156.008 L 274.662,179.115 L 298.715,176.152 L 298.897,153.086 z" />
    <path
       style="fill:#e77b7b;fill-rule:evenodd;stroke:#000000;stroke-width:1px;stroke-linecap:butt;stroke-linejoin:miter;stroke-opacity:1"
       d="M 372.042,74.5257 L 371.584,97.9926 L 395.472,95.2062 L 396.02,71.782 z" />
    <path
       style="fill:#e77b7b;fill-rule:evenodd;stroke:#000000;stroke-width:1px;stroke-linecap:butt;stroke-linejoin:miter;stroke-opacity:1"
       d="M 396.572,48.18 L 396.02,71.782 L 419.889,69.0507 L 420.53,45.492 z" />
    <path
       style="fill:#e77b7b;fill-rule:evenodd;stroke:#000000;stroke-width:1px;stroke-linecap:butt;stroke-linejoin:miter;stroke-opacity:1"
       d="M 421.176,21.7542 L 420.53,45.492 L 444.38,42.8161 L 445.115,19.1222 z" />
    <path
       style="fill:#e77b7b;fill-rule:evenodd;stroke:#000000;stroke-width:1px;stroke-linecap:butt;stroke-linejoin:miter;stroke-opacity:1"
       d="M 299.08,129.845 L 298.897,153.086 L 322.932,150.177 L 323.205,126.978 z" />
    <path
       style="fill:#e77b7b;fill-rule:evenodd;stroke:#000000;stroke-width:1px;stroke-linecap:butt;stroke-linejoin:miter;stroke-opacity:1"
       d="M 226.228,185.081 L 226.32,208.096 L 250.5,205.066 L 250.5,182.091 z" />
    <path
       style="fill:#e77b7b;fill-rule:evenodd;stroke:#000000;stroke-width:1px;stroke-linecap:butt;stroke-linejoin:miter;stroke-opacity:1"
       d="M 445.856,-4.75201 L 445.115,19.1222 L 468.945,16.5021 L 469.775,-7.32764 z" />
    <path
       style="fill:#e77b7b;fill-rule:evenodd;stroke:#000000;stroke-width:1px;stroke-linecap:butt;stroke-linejoin:miter;stroke-opacity:1"
       d="M 323.481,103.603 L 323.205,126.978 L 347.221,124.124 L 347.587,100.792 z" />
    <path
       style="fill:#e77b7b;fill-rule:evenodd;stroke:#000000;stroke-width:1px;stroke-linecap:butt;stroke-linejoin:miter;stroke-opacity:1"
       d="M 250.5,158.943 L 250.5,182.091 L 274.662,179.115 L 274.753,156.008 z" />
    <path
       style="fill:#e77b7b;fill-rule:evenodd;stroke:#000000;stroke-width:1px;stroke-linecap:butt;stroke-linejoin:miter;stroke-opacity:1"
       d="M 347.955,77.2819 L 347.587,100.792 L 371.584,97.9926 L 372.042,74.5257 z" />
    <path
       style="fill:#e77b7b;fill-rule:evenodd;stroke:#000000;stroke-width:1px;stroke-linecap:butt;stroke-linejoin:miter;stroke-opacity:1"
       d="M 201.846,188.085 L 202.03,211.141 L 226.32,208.096 L 226.228,185.081 z" />
    <path
       style="fill:#e77b7b;fill-rule:evenodd;stroke:#000000;stroke-width:1px;stroke-linecap:butt;stroke-linejoin:miter;stroke-opacity:1"
       d="M 372.504,50.8803 L 372.042,74.5257 L 396.02,71.782 L 396.572,48.18 z" />
    <path
       style="fill:#e77b7b;fill-rule:evenodd;stroke:#000000;stroke-width:1px;stroke-linecap:butt;stroke-linejoin:miter;stroke-opacity:1"
       d="M 274.845,132.725 L 274.753,156.008 L 298.897,153.086 L 299.08,129.845 z" />
    <path
       style="fill:#e77b7b;fill-rule:evenodd;stroke:#000000;stroke-width:1px;stroke-linecap:butt;stroke-linejoin:miter;stroke-opacity:1"
       d="M 397.128,24.3983 L 396.572,48.18 L 420.53,45.492 L 421.176,21.7542 z" />
    <path
       style="fill:#e87c7c;fill-rule:evenodd;stroke:#000000;stroke-width:1px;stroke-linecap:butt;stroke-linejoin:miter;stroke-opacity:1"
       d="M 421.827,-2.16458 L 421.176,21.7542 L 445.115,19.1222 L 445.856,-4.75201 z" />
    <path
       style="fill:#e87c7c;fill-rule:evenodd;stroke:#000000;stroke-width:1px;stroke-linecap:butt;stroke-linejoin:miter;stroke-opacity:1"
       d="M 299.265,106.428 L 299.08,129.845 L 323.205,126.978 L 323.481,103.603 z" />
    <path
       style="fill:#e87c7c;fill-rule:evenodd;stroke:#000000;stroke-width:1px;stroke-linecap:butt;stroke-linejoin:miter;stroke-opacity:1"
       d="M 226.136,161.891 L 226.228,185.081 L 250.5,182.091 L 250.5,158.943 z" />
    <path
       style="fill:#e87c7c;fill-rule:evenodd;stroke:#000000;stroke-width:1px;stroke-linecap:butt;stroke-linejoin:miter;stroke-opacity:1"
       d="M 323.758,80.0507 L 323.481,103.603 L 347.587,100.792 L 347.955,77.2819 z" />
    <path
       style="fill:#e87c7c;fill-rule:evenodd;stroke:#000000;stroke-width:1px;stroke-linecap:butt;stroke-linejoin:miter;stroke-opacity:1"
       d="M 250.5,135.619 L 250.5,158.943 L 274.753,156.008 L 274.845,132.725 z" />
    <path
       style="fill:#e87c7c;fill-rule:evenodd;stroke:#000000;stroke-width:1px;stroke-linecap:butt;stroke-linejoin:miter;stroke-opacity:1"
       d="M 348.327,53.593 L 347.955,77.2819 L 372.042,74.5257 L 372.504,50.8803 z" />
    <path
       style="fill:#e87c7c;fill-rule:evenodd;stroke:#000000;stroke-width:1px;stroke-linecap:butt;stroke-linejoin:miter;stroke-opacity:1"
       d="M 372.97,27.0544 L 372.504,50.8803 L 396.572,48.18 L 397.128,24.3983 z" />
    <path
       style="fill:#e87c7c;fill-rule:evenodd;stroke:#000000;stroke-width:1px;stroke-linecap:butt;stroke-linejoin:miter;stroke-opacity:1"
       d="M 201.661,164.853 L 201.846,188.085 L 226.228,185.081 L 226.136,161.891 z" />
    <path
       style="fill:#e87c7c;fill-rule:evenodd;stroke:#000000;stroke-width:1px;stroke-linecap:butt;stroke-linejoin:miter;stroke-opacity:1"
       d="M 397.689,0.434705 L 397.128,24.3983 L 421.176,21.7542 L 421.827,-2.16458 z" />
    <path
       style="fill:#e87c7c;fill-rule:evenodd;stroke:#000000;stroke-width:1px;stroke-linecap:butt;stroke-linejoin:miter;stroke-opacity:1"
       d="M 274.938,109.266 L 274.845,132.725 L 299.08,129.845 L 299.265,106.428 z" />
    <path
       style="fill:#e87c7c;fill-rule:evenodd;stroke:#000000;stroke-width:1px;stroke-linecap:butt;stroke-linejoin:miter;stroke-opacity:1"
       d="M 299.451,82.8322 L 299.265,106.428 L 323.481,103.603 L 323.758,80.0507 z" />
    <path
       style="fill:#e87c7c;fill-rule:evenodd;stroke:#000000;stroke-width:1px;stroke-linecap:butt;stroke-linejoin:miter;stroke-opacity:1"
       d="M 226.043,138.525 L 226.136,161.891 L 250.5,158.943 L 250.5,135.619 z" />
    <path
       style="fill:#e87c7c;fill-rule:evenodd;stroke:#000000;stroke-width:1px;stroke-linecap:butt;stroke-linejoin:miter;stroke-opacity:1"
       d="M 324.038,56.3181 L 323.758,80.0507 L 347.955,77.2819 L 348.327,53.593 z" />
    <path
       style="fill:#e87c7c;fill-rule:evenodd;stroke:#000000;stroke-width:1px;stroke-linecap:butt;stroke-linejoin:miter;stroke-opacity:1"
       d="M 177.074,167.829 L 177.353,191.102 L 201.846,188.085 L 201.661,164.853 z" />
    <path
       style="fill:#e87c7c;fill-rule:evenodd;stroke:#000000;stroke-width:1px;stroke-linecap:butt;stroke-linejoin:miter;stroke-opacity:1"
       d="M 348.701,29.7228 L 348.327,53.593 L 372.504,50.8803 L 372.97,27.0544 z" />
    <path
       style="fill:#e87c7c;fill-rule:evenodd;stroke:#000000;stroke-width:1px;stroke-linecap:butt;stroke-linejoin:miter;stroke-opacity:1"
       d="M 250.5,112.116 L 250.5,135.619 L 274.845,132.725 L 274.938,109.266 z" />
    <path
       style="fill:#e87c7c;fill-rule:evenodd;stroke:#000000;stroke-width:1px;stroke-linecap:butt;stroke-linejoin:miter;stroke-opacity:1"
       d="M 373.439,3.04595 L 372.97,27.0544 L 397.128,24.3983 L 397.689,0.434705 z" />
    <path
       style="fill:#e97c7c;fill-rule:evenodd;stroke:#000000;stroke-width:1px;stroke-linecap:butt;stroke-linejoin:miter;stroke-opacity:1"
       d="M 275.031,85.6264 L 274.938,109.266 L 299.265,106.428 L 299.451,82.8322 z" />
    <path
       style="fill:#e97c7c;fill-rule:evenodd;stroke:#000000;stroke-width:1px;stroke-linecap:butt;stroke-linejoin:miter;stroke-opacity:1"
       d="M 201.475,141.445 L 201.661,164.853 L 226.136,161.891 L 226.043,138.525 z" />
    <path
       style="fill:#e97c7c;fill-rule:evenodd;stroke:#000000;stroke-width:1px;stroke-linecap:butt;stroke-linejoin:miter;stroke-opacity:1"
       d="M 299.638,59.0557 L 299.451,82.8322 L 323.758,80.0507 L 324.038,56.3181 z" />
    <path
       style="fill:#e97c7c;fill-rule:evenodd;stroke:#000000;stroke-width:1px;stroke-linecap:butt;stroke-linejoin:miter;stroke-opacity:1"
       d="M 225.95,114.98 L 226.043,138.525 L 250.5,135.619 L 250.5,112.116 z" />
    <path
       style="fill:#e97c7c;fill-rule:evenodd;stroke:#000000;stroke-width:1px;stroke-linecap:butt;stroke-linejoin:miter;stroke-opacity:1"
       d="M 324.32,32.4034 L 324.038,56.3181 L 348.327,53.593 L 348.701,29.7228 z" />
    <path
       style="fill:#e97c7c;fill-rule:evenodd;stroke:#000000;stroke-width:1px;stroke-linecap:butt;stroke-linejoin:miter;stroke-opacity:1"
       d="M 349.078,5.66922 L 348.701,29.7228 L 372.97,27.0544 L 373.439,3.04595 z" />
    <path
       style="fill:#e97c7c;fill-rule:evenodd;stroke:#000000;stroke-width:1px;stroke-linecap:butt;stroke-linejoin:miter;stroke-opacity:1"
       d="M 176.793,144.378 L 177.074,167.829 L 201.661,164.853 L 201.475,141.445 z" />
    <path
       style="fill:#e97c7c;fill-rule:evenodd;stroke:#000000;stroke-width:1px;stroke-linecap:butt;stroke-linejoin:miter;stroke-opacity:1"
       d="M 250.5,88.4335 L 250.5,112.116 L 274.938,109.266 L 275.031,85.6264 z" />
    <path
       style="fill:#e97c7c;fill-rule:evenodd;stroke:#000000;stroke-width:1px;stroke-linecap:butt;stroke-linejoin:miter;stroke-opacity:1"
       d="M 275.126,61.8059 L 275.031,85.6264 L 299.451,82.8322 L 299.638,59.0557 z" />
    <path
       style="fill:#e97c7c;fill-rule:evenodd;stroke:#000000;stroke-width:1px;stroke-linecap:butt;stroke-linejoin:miter;stroke-opacity:1"
       d="M 201.287,117.856 L 201.475,141.445 L 226.043,138.525 L 225.95,114.98 z" />
    <path
       style="fill:#e97c7c;fill-rule:evenodd;stroke:#000000;stroke-width:1px;stroke-linecap:butt;stroke-linejoin:miter;stroke-opacity:1"
       d="M 299.827,35.0964 L 299.638,59.0557 L 324.038,56.3181 L 324.32,32.4034 z" />
    <path
       style="fill:#e97c7c;fill-rule:evenodd;stroke:#000000;stroke-width:1px;stroke-linecap:butt;stroke-linejoin:miter;stroke-opacity:1"
       d="M 324.604,8.30461 L 324.32,32.4034 L 348.701,29.7228 L 349.078,5.66922 z" />
    <path
       style="fill:#e97c7c;fill-rule:evenodd;stroke:#000000;stroke-width:1px;stroke-linecap:butt;stroke-linejoin:miter;stroke-opacity:1"
       d="M 225.855,91.2535 L 225.95,114.98 L 250.5,112.116 L 250.5,88.4335 z" />
    <path
       style="fill:#ea7d7d;fill-rule:evenodd;stroke:#000000;stroke-width:1px;stroke-linecap:butt;stroke-linejoin:miter;stroke-opacity:1"
       d="M 176.51,120.746 L 176.793,144.378 L 201.475,141.445 L 201.287,117.856 z" />
    <path
       style="fill:#ea7d7d;fill-rule:evenodd;stroke:#000000;stroke-width:1px;stroke-linecap:butt;stroke-linejoin:miter;stroke-opacity:1"
       d="M 250.5,64.5688 L 250.5,88.4335 L 275.031,85.6264 L 275.126,61.8059 z" />
    <path
       style="fill:#ea7d7d;fill-rule:evenodd;stroke:#000000;stroke-width:1px;stroke-linecap:butt;stroke-linejoin:miter;stroke-opacity:1"
       d="M 275.22,37.8018 L 275.126,61.8059 L 299.638,59.0557 L 299.827,35.0964 z" />
    <path
       style="fill:#ea7d7d;fill-rule:evenodd;stroke:#000000;stroke-width:1px;stroke-linecap:butt;stroke-linejoin:miter;stroke-opacity:1"
       d="M 201.097,94.0866 L 201.287,117.856 L 225.95,114.98 L 225.855,91.2535 z" />
    <path
       style="fill:#ea7d7d;fill-rule:evenodd;stroke:#000000;stroke-width:1px;stroke-linecap:butt;stroke-linejoin:miter;stroke-opacity:1"
       d="M 300.017,10.9522 L 299.827,35.0964 L 324.32,32.4034 L 324.604,8.30461 z" />
    <path
       style="fill:#ea7d7d;fill-rule:evenodd;stroke:#000000;stroke-width:1px;stroke-linecap:butt;stroke-linejoin:miter;stroke-opacity:1"
       d="M 151.618,123.65 L 151.998,147.325 L 176.793,144.378 L 176.51,120.746 z" />
    <path
       style="fill:#ea7d7d;fill-rule:evenodd;stroke:#000000;stroke-width:1px;stroke-linecap:butt;stroke-linejoin:miter;stroke-opacity:1"
       d="M 225.76,67.3445 L 225.855,91.2535 L 250.5,88.4335 L 250.5,64.5688 z" />
    <path
       style="fill:#ea7d7d;fill-rule:evenodd;stroke:#000000;stroke-width:1px;stroke-linecap:butt;stroke-linejoin:miter;stroke-opacity:1"
       d="M 250.5,40.5198 L 250.5,64.5688 L 275.126,61.8059 L 275.22,37.8018 z" />
    <path
       style="fill:#ea7d7d;fill-rule:evenodd;stroke:#000000;stroke-width:1px;stroke-linecap:butt;stroke-linejoin:miter;stroke-opacity:1"
       d="M 176.224,96.9328 L 176.51,120.746 L 201.287,117.856 L 201.097,94.0866 z" />
    <path
       style="fill:#ea7d7d;fill-rule:evenodd;stroke:#000000;stroke-width:1px;stroke-linecap:butt;stroke-linejoin:miter;stroke-opacity:1"
       d="M 275.316,13.6121 L 275.22,37.8018 L 299.827,35.0964 L 300.017,10.9522 z" />
    <path
       style="fill:#ea7d7d;fill-rule:evenodd;stroke:#000000;stroke-width:1px;stroke-linecap:butt;stroke-linejoin:miter;stroke-opacity:1"
       d="M 200.906,70.133 L 201.097,94.0866 L 225.855,91.2535 L 225.76,67.3445 z" />
    <path
       style="fill:#ea7d7d;fill-rule:evenodd;stroke:#000000;stroke-width:1px;stroke-linecap:butt;stroke-linejoin:miter;stroke-opacity:1"
       d="M 151.236,99.7921 L 151.618,123.65 L 176.51,120.746 L 176.224,96.9328 z" />
    <path
       style="fill:#eb7d7d;fill-rule:evenodd;stroke:#000000;stroke-width:1px;stroke-linecap:butt;stroke-linejoin:miter;stroke-opacity:1"
       d="M 225.665,43.2504 L 225.76,67.3445 L 250.5,64.5688 L 250.5,40.5198 z" />
    <path
       style="fill:#eb7d7d;fill-rule:evenodd;stroke:#000000;stroke-width:1px;stroke-linecap:butt;stroke-linejoin:miter;stroke-opacity:1"
       d="M 250.5,16.2843 L 250.5,40.5198 L 275.22,37.8018 L 275.316,13.6121 z" />
    <path
       style="fill:#eb7d7d;fill-rule:evenodd;stroke:#000000;stroke-width:1px;stroke-linecap:butt;stroke-linejoin:miter;stroke-opacity:1"
       d="M 175.936,72.9346 L 176.224,96.9328 L 201.097,94.0866 L 200.906,70.133 z" />
    <path
       style="fill:#eb7d7d;fill-rule:evenodd;stroke:#000000;stroke-width:1px;stroke-linecap:butt;stroke-linejoin:miter;stroke-opacity:1"
       d="M 200.714,45.9937 L 200.906,70.133 L 225.76,67.3445 L 225.665,43.2504 z" />
    <path
       style="fill:#eb7d7d;fill-rule:evenodd;stroke:#000000;stroke-width:1px;stroke-linecap:butt;stroke-linejoin:miter;stroke-opacity:1"
       d="M 225.568,18.969 L 225.665,43.2504 L 250.5,40.5198 L 250.5,16.2843 z" />
    <path
       style="fill:#eb7d7d;fill-rule:evenodd;stroke:#000000;stroke-width:1px;stroke-linecap:butt;stroke-linejoin:miter;stroke-opacity:1"
       d="M 150.85,75.7491 L 151.236,99.7921 L 176.224,96.9328 L 175.936,72.9346 z" />
    <path
       style="fill:#eb7d7d;fill-rule:evenodd;stroke:#000000;stroke-width:1px;stroke-linecap:butt;stroke-linejoin:miter;stroke-opacity:1"
       d="M 175.647,48.7498 L 175.936,72.9346 L 200.906,70.133 L 200.714,45.9937 z" />
    <path
       style="fill:#eb7d7d;fill-rule:evenodd;stroke:#000000;stroke-width:1px;stroke-linecap:butt;stroke-linejoin:miter;stroke-opacity:1"
       d="M 200.52,21.6663 L 200.714,45.9937 L 225.665,43.2504 L 225.568,18.969 z" />
    <path
       style="fill:#ec7e7e;fill-rule:evenodd;stroke:#000000;stroke-width:1px;stroke-linecap:butt;stroke-linejoin:miter;stroke-opacity:1"
       d="M 150.462,51.5188 L 150.85,75.7491 L 175.936,72.9346 L 175.647,48.7498 z" />
    <path
       style="fill:#ec7e7e;fill-rule:evenodd;stroke:#000000;stroke-width:1px;stroke-linecap:butt;stroke-linejoin:miter;stroke-opacity:1"
       d="M 175.354,24.3762 L 175.647,48.7498 L 200.714,45.9937 L 200.52,21.6663 z" />
    <path
       style="fill:#ec7e7e;fill-rule:evenodd;stroke:#000000;stroke-width:1px;stroke-linecap:butt;stroke-linejoin:miter;stroke-opacity:1"
       d="M 125.159,54.3007 L 125.647,78.5769 L 150.85,75.7491 L 150.462,51.5188 z" />
    <path
       style="fill:#ec7e7e;fill-rule:evenodd;stroke:#000000;stroke-width:1px;stroke-linecap:butt;stroke-linejoin:miter;stroke-opacity:1"
       d="M 150.071,27.0988 L 150.462,51.5188 L 175.647,48.7498 L 175.354,24.3762 z" />
    <path
       style="fill:#ed7e7e;fill-rule:evenodd;stroke:#000000;stroke-width:1px;stroke-linecap:butt;stroke-linejoin:miter;stroke-opacity:1"
       d="M 124.668,29.8342 L 125.159,54.3007 L 150.462,51.5188 L 150.071,27.0988 z" />
  </g>
</svg>
