<?xml version="1.0" encoding="UTF-8" standalone="no"?>
<!-- Created with Inkscape (http://www.inkscape.org/) -->
<svg
   xmlns:dc="http://purl.org/dc/elements/1.1/"
   xmlns:cc="http://web.resource.org/cc/"
   xmlns:rdf="http://www.w3.org/1999/02/22-rdf-syntax-ns#"
   xmlns:svg="http://www.w3.org/2000/svg"
   xmlns="http://www.w3.org/2000/svg"
   xmlns:sodipodi="http://sodipodi.sourceforge.net/DTD/sodipodi-0.dtd"
   xmlns:inkscape="http://www.inkscape.org/namespaces/inkscape"
   width="744.09448819"
   height="1052.3622047"
   id="svg2"
   sodipodi:version="0.32"
   inkscape:version="0.44">
  <defs
     id="defs4" />
  <sodipodi:namedview
     id="base"
     pagecolor="#ffffff"
     bordercolor="#666666"
     borderopacity="1.0"
     gridtolerance="10000"
     guidetolerance="10"
     objecttolerance="10"
     inkscape:pageopacity="0.0"
     inkscape:pageshadow="2"
     inkscape:zoom="0.35"
     inkscape:cx="375"
     inkscape:cy="520"
     inkscape:document-units="px"
     inkscape:current-layer="layer1"
     inkscape:window-width="853"
     inkscape:window-height="573"
     inkscape:window-x="44"
     inkscape:window-y="44" />
  <metadata
     id="metadata7">
    <rdf:RDF>
      <cc:Work
         rdf:about="">
        <dc:format>image/svg+xml</dc:format>
        <dc:type
           rdf:resource="http://purl.org/dc/dcmitype/StillImage" />
      </cc:Work>
    </rdf:RDF>
  </metadata>
  <g
     inkscape:label="Layer 1"
     inkscape:groupmode="layer"
     id="layer1">
    <path
       style="fill:#de7777;fill-rule:evenodd;stroke:#000000;stroke-width:1px;stroke-linecap:butt;stroke-linejoin:miter;stroke-opacity:1"
       d="M 457.96,332.144 L 457.218,353.479 L 479.694,350.289 L 480.516,328.988 z" />
    <path
       style="fill:#df7777;fill-rule:evenodd;stroke:#000000;stroke-width:1px;stroke-linecap:butt;stroke-linejoin:miter;stroke-opacity:1"
       d="M 458.708,310.655 L 457.96,332.144 L 480.516,328.988 L 481.343,307.534 z" />
    <path
       style="fill:#df7777;fill-rule:evenodd;stroke:#000000;stroke-width:1px;stroke-linecap:butt;stroke-linejoin:miter;stroke-opacity:1"
       d="M 435.975,313.789 L 435.307,335.314 L 457.96,332.144 L 458.708,310.655 z" />
    <path
       style="fill:#df7777;fill-rule:evenodd;stroke:#000000;stroke-width:1px;stroke-linecap:butt;stroke-linejoin:miter;stroke-opacity:1"
       d="M 459.461,289.01 L 458.708,310.655 L 481.343,307.534 L 482.176,285.924 z" />
    <path
       style="fill:#e07878;fill-rule:evenodd;stroke:#000000;stroke-width:1px;stroke-linecap:butt;stroke-linejoin:miter;stroke-opacity:1"
       d="M 436.648,292.109 L 435.975,313.789 L 458.708,310.655 L 459.461,289.01 z" />
    <path
       style="fill:#e07878;fill-rule:evenodd;stroke:#000000;stroke-width:1px;stroke-linecap:butt;stroke-linejoin:miter;stroke-opacity:1"
       d="M 460.22,267.208 L 459.461,289.01 L 482.176,285.924 L 483.016,264.159 z" />
    <path
       style="fill:#e07878;fill-rule:evenodd;stroke:#000000;stroke-width:1px;stroke-linecap:butt;stroke-linejoin:miter;stroke-opacity:1"
       d="M 413.734,295.221 L 413.143,316.938 L 435.975,313.789 L 436.648,292.109 z" />
    <path
       style="fill:#e07878;fill-rule:evenodd;stroke:#000000;stroke-width:1px;stroke-linecap:butt;stroke-linejoin:miter;stroke-opacity:1"
       d="M 437.325,270.271 L 436.648,292.109 L 459.461,289.01 L 460.22,267.208 z" />
    <path
       style="fill:#e07878;fill-rule:evenodd;stroke:#000000;stroke-width:1px;stroke-linecap:butt;stroke-linejoin:miter;stroke-opacity:1"
       d="M 460.984,245.247 L 460.22,267.208 L 483.016,264.159 L 483.861,242.235 z" />
    <path
       style="fill:#e17878;fill-rule:evenodd;stroke:#000000;stroke-width:1px;stroke-linecap:butt;stroke-linejoin:miter;stroke-opacity:1"
       d="M 390.721,298.347 L 390.212,320.099 L 413.143,316.938 L 413.734,295.221 z" />
    <path
       style="fill:#e17878;fill-rule:evenodd;stroke:#000000;stroke-width:1px;stroke-linecap:butt;stroke-linejoin:miter;stroke-opacity:1"
       d="M 414.33,273.347 L 413.734,295.221 L 436.648,292.109 L 437.325,270.271 z" />
    <path
       style="fill:#e17878;fill-rule:evenodd;stroke:#000000;stroke-width:1px;stroke-linecap:butt;stroke-linejoin:miter;stroke-opacity:1"
       d="M 438.007,248.273 L 437.325,270.271 L 460.22,267.208 L 460.984,245.247 z" />
    <path
       style="fill:#e17878;fill-rule:evenodd;stroke:#000000;stroke-width:1px;stroke-linecap:butt;stroke-linejoin:miter;stroke-opacity:1"
       d="M 461.754,223.126 L 460.984,245.247 L 483.861,242.235 L 484.713,220.151 z" />
    <path
       style="fill:#e17878;fill-rule:evenodd;stroke:#000000;stroke-width:1px;stroke-linecap:butt;stroke-linejoin:miter;stroke-opacity:1"
       d="M 391.233,276.436 L 390.721,298.347 L 413.734,295.221 L 414.33,273.347 z" />
    <path
       style="fill:#e17878;fill-rule:evenodd;stroke:#000000;stroke-width:1px;stroke-linecap:butt;stroke-linejoin:miter;stroke-opacity:1"
       d="M 414.929,251.312 L 414.33,273.347 L 437.325,270.271 L 438.007,248.273 z" />
    <path
       style="fill:#e17878;fill-rule:evenodd;stroke:#000000;stroke-width:1px;stroke-linecap:butt;stroke-linejoin:miter;stroke-opacity:1"
       d="M 438.695,226.114 L 438.007,248.273 L 460.984,245.247 L 461.754,223.126 z" />
    <path
       style="fill:#e27979;fill-rule:evenodd;stroke:#000000;stroke-width:1px;stroke-linecap:butt;stroke-linejoin:miter;stroke-opacity:1"
       d="M 368.035,279.539 L 367.606,301.487 L 390.721,298.347 L 391.233,276.436 z" />
    <path
       style="fill:#e27979;fill-rule:evenodd;stroke:#000000;stroke-width:1px;stroke-linecap:butt;stroke-linejoin:miter;stroke-opacity:1"
       d="M 462.53,200.842 L 461.754,223.126 L 484.713,220.151 L 485.571,197.905 z" />
    <path
       style="fill:#e27979;fill-rule:evenodd;stroke:#000000;stroke-width:1px;stroke-linecap:butt;stroke-linejoin:miter;stroke-opacity:1"
       d="M 391.75,254.364 L 391.233,276.436 L 414.33,273.347 L 414.929,251.312 z" />
    <path
       style="fill:#e27979;fill-rule:evenodd;stroke:#000000;stroke-width:1px;stroke-linecap:butt;stroke-linejoin:miter;stroke-opacity:1"
       d="M 415.533,229.115 L 414.929,251.312 L 438.007,248.273 L 438.695,226.114 z" />
    <path
       style="fill:#e27979;fill-rule:evenodd;stroke:#000000;stroke-width:1px;stroke-linecap:butt;stroke-linejoin:miter;stroke-opacity:1"
       d="M 439.387,203.792 L 438.695,226.114 L 461.754,223.126 L 462.53,200.842 z" />
    <path
       style="fill:#e27979;fill-rule:evenodd;stroke:#000000;stroke-width:1px;stroke-linecap:butt;stroke-linejoin:miter;stroke-opacity:1"
       d="M 463.311,178.394 L 462.53,200.842 L 485.571,197.905 L 486.435,175.495 z" />
    <path
       style="fill:#e27979;fill-rule:evenodd;stroke:#000000;stroke-width:1px;stroke-linecap:butt;stroke-linejoin:miter;stroke-opacity:1"
       d="M 368.468,257.43 L 368.035,279.539 L 391.233,276.436 L 391.75,254.364 z" />
    <path
       style="fill:#e27979;fill-rule:evenodd;stroke:#000000;stroke-width:1px;stroke-linecap:butt;stroke-linejoin:miter;stroke-opacity:1"
       d="M 392.27,232.129 L 391.75,254.364 L 414.929,251.312 L 415.533,229.115 z" />
    <path
       style="fill:#e37979;fill-rule:evenodd;stroke:#000000;stroke-width:1px;stroke-linecap:butt;stroke-linejoin:miter;stroke-opacity:1"
       d="M 416.142,206.755 L 415.533,229.115 L 438.695,226.114 L 439.387,203.792 z" />
    <path
       style="fill:#e37979;fill-rule:evenodd;stroke:#000000;stroke-width:1px;stroke-linecap:butt;stroke-linejoin:miter;stroke-opacity:1"
       d="M 345.083,260.509 L 344.735,282.656 L 368.035,279.539 L 368.468,257.43 z" />
    <path
       style="fill:#e37979;fill-rule:evenodd;stroke:#000000;stroke-width:1px;stroke-linecap:butt;stroke-linejoin:miter;stroke-opacity:1"
       d="M 440.085,181.305 L 439.387,203.792 L 462.53,200.842 L 463.311,178.394 z" />
    <path
       style="fill:#e37979;fill-rule:evenodd;stroke:#000000;stroke-width:1px;stroke-linecap:butt;stroke-linejoin:miter;stroke-opacity:1"
       d="M 464.098,155.779 L 463.311,178.394 L 486.435,175.495 L 487.306,152.921 z" />
    <path
       style="fill:#e37979;fill-rule:evenodd;stroke:#000000;stroke-width:1px;stroke-linecap:butt;stroke-linejoin:miter;stroke-opacity:1"
       d="M 368.903,235.157 L 368.468,257.43 L 391.75,254.364 L 392.27,232.129 z" />
    <path
       style="fill:#e37979;fill-rule:evenodd;stroke:#000000;stroke-width:1px;stroke-linecap:butt;stroke-linejoin:miter;stroke-opacity:1"
       d="M 392.793,209.731 L 392.27,232.129 L 415.533,229.115 L 416.142,206.755 z" />
    <path
       style="fill:#e37979;fill-rule:evenodd;stroke:#000000;stroke-width:1px;stroke-linecap:butt;stroke-linejoin:miter;stroke-opacity:1"
       d="M 321.594,263.602 L 321.333,285.786 L 344.735,282.656 L 345.083,260.509 z" />
    <path
       style="fill:#e37979;fill-rule:evenodd;stroke:#000000;stroke-width:1px;stroke-linecap:butt;stroke-linejoin:miter;stroke-opacity:1"
       d="M 416.755,184.229 L 416.142,206.755 L 439.387,203.792 L 440.085,181.305 z" />
    <path
       style="fill:#e37979;fill-rule:evenodd;stroke:#000000;stroke-width:1px;stroke-linecap:butt;stroke-linejoin:miter;stroke-opacity:1"
       d="M 345.432,238.199 L 345.083,260.509 L 368.468,257.43 L 368.903,235.157 z" />
    <path
       style="fill:#e37979;fill-rule:evenodd;stroke:#000000;stroke-width:1px;stroke-linecap:butt;stroke-linejoin:miter;stroke-opacity:1"
       d="M 440.787,158.651 L 440.085,181.305 L 463.311,178.394 L 464.098,155.779 z" />
    <path
       style="fill:#e37979;fill-rule:evenodd;stroke:#000000;stroke-width:1px;stroke-linecap:butt;stroke-linejoin:miter;stroke-opacity:1"
       d="M 464.891,132.997 L 464.098,155.779 L 487.306,152.921 L 488.183,130.179 z" />
    <path
       style="fill:#e37979;fill-rule:evenodd;stroke:#000000;stroke-width:1px;stroke-linecap:butt;stroke-linejoin:miter;stroke-opacity:1"
       d="M 369.341,212.72 L 368.903,235.157 L 392.27,232.129 L 392.793,209.731 z" />
    <path
       style="fill:#e47a7a;fill-rule:evenodd;stroke:#000000;stroke-width:1px;stroke-linecap:butt;stroke-linejoin:miter;stroke-opacity:1"
       d="M 393.321,187.166 L 392.793,209.731 L 416.142,206.755 L 416.755,184.229 z" />
    <path
       style="fill:#e47a7a;fill-rule:evenodd;stroke:#000000;stroke-width:1px;stroke-linecap:butt;stroke-linejoin:miter;stroke-opacity:1"
       d="M 321.858,241.253 L 321.594,263.602 L 345.083,260.509 L 345.432,238.199 z" />
    <path
       style="fill:#e47a7a;fill-rule:evenodd;stroke:#000000;stroke-width:1px;stroke-linecap:butt;stroke-linejoin:miter;stroke-opacity:1"
       d="M 417.372,161.535 L 416.755,184.229 L 440.085,181.305 L 440.787,158.651 z" />
    <path
       style="fill:#e47a7a;fill-rule:evenodd;stroke:#000000;stroke-width:1px;stroke-linecap:butt;stroke-linejoin:miter;stroke-opacity:1"
       d="M 441.495,135.829 L 440.787,158.651 L 464.098,155.779 L 464.891,132.997 z" />
    <path
       style="fill:#e47a7a;fill-rule:evenodd;stroke:#000000;stroke-width:1px;stroke-linecap:butt;stroke-linejoin:miter;stroke-opacity:1"
       d="M 345.785,215.723 L 345.432,238.199 L 368.903,235.157 L 369.341,212.72 z" />
    <path
       style="fill:#e47a7a;fill-rule:evenodd;stroke:#000000;stroke-width:1px;stroke-linecap:butt;stroke-linejoin:miter;stroke-opacity:1"
       d="M 465.69,110.046 L 464.891,132.997 L 488.183,130.179 L 489.066,107.267 z" />
    <path
       style="fill:#e47a7a;fill-rule:evenodd;stroke:#000000;stroke-width:1px;stroke-linecap:butt;stroke-linejoin:miter;stroke-opacity:1"
       d="M 369.783,190.116 L 369.341,212.72 L 392.793,209.731 L 393.321,187.166 z" />
    <path
       style="fill:#e47a7a;fill-rule:evenodd;stroke:#000000;stroke-width:1px;stroke-linecap:butt;stroke-linejoin:miter;stroke-opacity:1"
       d="M 298.178,244.322 L 298.001,266.709 L 321.594,263.602 L 321.858,241.253 z" />
    <path
       style="fill:#e47a7a;fill-rule:evenodd;stroke:#000000;stroke-width:1px;stroke-linecap:butt;stroke-linejoin:miter;stroke-opacity:1"
       d="M 393.853,164.432 L 393.321,187.166 L 416.755,184.229 L 417.372,161.535 z" />
    <path
       style="fill:#e47a7a;fill-rule:evenodd;stroke:#000000;stroke-width:1px;stroke-linecap:butt;stroke-linejoin:miter;stroke-opacity:1"
       d="M 322.123,218.739 L 321.858,241.253 L 345.432,238.199 L 345.785,215.723 z" />
    <path
       style="fill:#e47a7a;fill-rule:evenodd;stroke:#000000;stroke-width:1px;stroke-linecap:butt;stroke-linejoin:miter;stroke-opacity:1"
       d="M 417.995,138.673 L 417.372,161.535 L 440.787,158.651 L 441.495,135.829 z" />
    <path
       style="fill:#e47a7a;fill-rule:evenodd;stroke:#000000;stroke-width:1px;stroke-linecap:butt;stroke-linejoin:miter;stroke-opacity:1"
       d="M 442.208,112.836 L 441.495,135.829 L 464.891,132.997 L 465.69,110.046 z" />
    <path
       style="fill:#e47a7a;fill-rule:evenodd;stroke:#000000;stroke-width:1px;stroke-linecap:butt;stroke-linejoin:miter;stroke-opacity:1"
       d="M 346.14,193.079 L 345.785,215.723 L 369.341,212.72 L 369.783,190.116 z" />
    <path
       style="fill:#e47a7a;fill-rule:evenodd;stroke:#000000;stroke-width:1px;stroke-linecap:butt;stroke-linejoin:miter;stroke-opacity:1"
       d="M 466.494,86.9221 L 465.69,110.046 L 489.066,107.267 L 489.957,84.1854 z" />
    <path
       style="fill:#e57a7a;fill-rule:evenodd;stroke:#000000;stroke-width:1px;stroke-linecap:butt;stroke-linejoin:miter;stroke-opacity:1"
       d="M 370.228,167.343 L 369.783,190.116 L 393.321,187.166 L 393.853,164.432 z" />
    <path
       style="fill:#e57a7a;fill-rule:evenodd;stroke:#000000;stroke-width:1px;stroke-linecap:butt;stroke-linejoin:miter;stroke-opacity:1"
       d="M 298.356,221.768 L 298.178,244.322 L 321.858,241.253 L 322.123,218.739 z" />
    <path
       style="fill:#e57a7a;fill-rule:evenodd;stroke:#000000;stroke-width:1px;stroke-linecap:butt;stroke-linejoin:miter;stroke-opacity:1"
       d="M 394.389,141.53 L 393.853,164.432 L 417.372,161.535 L 417.995,138.673 z" />
    <path
       style="fill:#e57a7a;fill-rule:evenodd;stroke:#000000;stroke-width:1px;stroke-linecap:butt;stroke-linejoin:miter;stroke-opacity:1"
       d="M 418.621,115.639 L 417.995,138.673 L 441.495,135.829 L 442.208,112.836 z" />
    <path
       style="fill:#e57a7a;fill-rule:evenodd;stroke:#000000;stroke-width:1px;stroke-linecap:butt;stroke-linejoin:miter;stroke-opacity:1"
       d="M 322.391,196.055 L 322.123,218.739 L 345.785,215.723 L 346.14,193.079 z" />
    <path
       style="fill:#e57a7a;fill-rule:evenodd;stroke:#000000;stroke-width:1px;stroke-linecap:butt;stroke-linejoin:miter;stroke-opacity:1"
       d="M 442.927,89.671 L 442.208,112.836 L 465.69,110.046 L 466.494,86.9221 z" />
    <path
       style="fill:#e57a7a;fill-rule:evenodd;stroke:#000000;stroke-width:1px;stroke-linecap:butt;stroke-linejoin:miter;stroke-opacity:1"
       d="M 467.305,63.625 L 466.494,86.9221 L 489.957,84.1854 L 490.853,60.9304 z" />
    <path
       style="fill:#e57a7a;fill-rule:evenodd;stroke:#000000;stroke-width:1px;stroke-linecap:butt;stroke-linejoin:miter;stroke-opacity:1"
       d="M 346.498,170.266 L 346.14,193.079 L 369.783,190.116 L 370.228,167.343 z" />
    <path
       style="fill:#e57a7a;fill-rule:evenodd;stroke:#000000;stroke-width:1px;stroke-linecap:butt;stroke-linejoin:miter;stroke-opacity:1"
       d="M 274.481,224.811 L 274.392,247.404 L 298.178,244.322 L 298.356,221.768 z" />
    <path
       style="fill:#e57a7a;fill-rule:evenodd;stroke:#000000;stroke-width:1px;stroke-linecap:butt;stroke-linejoin:miter;stroke-opacity:1"
       d="M 370.677,144.399 L 370.228,167.343 L 393.853,164.432 L 394.389,141.53 z" />
    <path
       style="fill:#e57a7a;fill-rule:evenodd;stroke:#000000;stroke-width:1px;stroke-linecap:butt;stroke-linejoin:miter;stroke-opacity:1"
       d="M 298.535,199.045 L 298.356,221.768 L 322.123,218.739 L 322.391,196.055 z" />
    <path
       style="fill:#e57a7a;fill-rule:evenodd;stroke:#000000;stroke-width:1px;stroke-linecap:butt;stroke-linejoin:miter;stroke-opacity:1"
       d="M 394.928,118.455 L 394.389,141.53 L 417.995,138.673 L 418.621,115.639 z" />
    <path
       style="fill:#e57a7a;fill-rule:evenodd;stroke:#000000;stroke-width:1px;stroke-linecap:butt;stroke-linejoin:miter;stroke-opacity:1"
       d="M 419.253,92.4324 L 418.621,115.639 L 442.208,112.836 L 442.927,89.671 z" />
    <path
       style="fill:#e57a7a;fill-rule:evenodd;stroke:#000000;stroke-width:1px;stroke-linecap:butt;stroke-linejoin:miter;stroke-opacity:1"
       d="M 250.5,227.868 L 250.5,250.5 L 274.392,247.404 L 274.481,224.811 z" />
    <path
       style="fill:#e57a7a;fill-rule:evenodd;stroke:#000000;stroke-width:1px;stroke-linecap:butt;stroke-linejoin:miter;stroke-opacity:1"
       d="M 322.66,173.202 L 322.391,196.055 L 346.14,193.079 L 346.498,170.266 z" />
    <path
       style="fill:#e57a7a;fill-rule:evenodd;stroke:#000000;stroke-width:1px;stroke-linecap:butt;stroke-linejoin:miter;stroke-opacity:1"
       d="M 443.651,66.3317 L 442.927,89.671 L 466.494,86.9221 L 467.305,63.625 z" />
    <path
       style="fill:#e57a7a;fill-rule:evenodd;stroke:#000000;stroke-width:1px;stroke-linecap:butt;stroke-linejoin:miter;stroke-opacity:1"
       d="M 468.122,40.1523 L 467.305,63.625 L 490.853,60.9304 L 491.757,37.5006 z" />
    <path
       style="fill:#e67b7b;fill-rule:evenodd;stroke:#000000;stroke-width:1px;stroke-linecap:butt;stroke-linejoin:miter;stroke-opacity:1"
       d="M 346.858,147.282 L 346.498,170.266 L 370.228,167.343 L 370.677,144.399 z" />
    <path
       style="fill:#e67b7b;fill-rule:evenodd;stroke:#000000;stroke-width:1px;stroke-linecap:butt;stroke-linejoin:miter;stroke-opacity:1"
       d="M 274.571,202.049 L 274.481,224.811 L 298.356,221.768 L 298.535,199.045 z" />
    <path
       style="fill:#e67b7b;fill-rule:evenodd;stroke:#000000;stroke-width:1px;stroke-linecap:butt;stroke-linejoin:miter;stroke-opacity:1"
       d="M 371.128,121.283 L 370.677,144.399 L 394.389,141.53 L 394.928,118.455 z" />
    <path
       style="fill:#e67b7b;fill-rule:evenodd;stroke:#000000;stroke-width:1px;stroke-linecap:butt;stroke-linejoin:miter;stroke-opacity:1"
       d="M 395.472,95.2062 L 394.928,118.455 L 418.621,115.639 L 419.253,92.4324 z" />
    <path
       style="fill:#e67b7b;fill-rule:evenodd;stroke:#000000;stroke-width:1px;stroke-linecap:butt;stroke-linejoin:miter;stroke-opacity:1"
       d="M 298.715,176.152 L 298.535,199.045 L 322.391,196.055 L 322.66,173.202 z" />
    <path
       style="fill:#e67b7b;fill-rule:evenodd;stroke:#000000;stroke-width:1px;stroke-linecap:butt;stroke-linejoin:miter;stroke-opacity:1"
       d="M 419.889,69.0507 L 419.253,92.4324 L 442.927,89.671 L 443.651,66.3317 z" />
    <path
       style="fill:#e67b7b;fill-rule:evenodd;stroke:#000000;stroke-width:1px;stroke-linecap:butt;stroke-linejoin:miter;stroke-opacity:1"
       d="M 444.38,42.8161 L 443.651,66.3317 L 467.305,63.625 L 468.122,40.1523 z" />
    <path
       style="fill:#e67b7b;fill-rule:evenodd;stroke:#000000;stroke-width:1px;stroke-linecap:butt;stroke-linejoin:miter;stroke-opacity:1"
       d="M 322.932,150.177 L 322.66,173.202 L 346.498,170.266 L 346.858,147.282 z" />
    <path
       style="fill:#e67b7b;fill-rule:evenodd;stroke:#000000;stroke-width:1px;stroke-linecap:butt;stroke-linejoin:miter;stroke-opacity:1"
       d="M 468.945,16.5021 L 468.122,40.1523 L 491.757,37.5006 L 492.667,13.8939 z" />
    <path
       style="fill:#e67b7b;fill-rule:evenodd;stroke:#000000;stroke-width:1px;stroke-linecap:butt;stroke-linejoin:miter;stroke-opacity:1"
       d="M 347.221,124.124 L 346.858,147.282 L 370.677,144.399 L 371.128,121.283 z" />
    <path
       style="fill:#e67b7b;fill-rule:evenodd;stroke:#000000;stroke-width:1px;stroke-linecap:butt;stroke-linejoin:miter;stroke-opacity:1"
       d="M 371.584,97.9926 L 371.128,121.283 L 394.928,118.455 L 395.472,95.2062 z" />
    <path
       style="fill:#e67b7b;fill-rule:evenodd;stroke:#000000;stroke-width:1px;stroke-linecap:butt;stroke-linejoin:miter;stroke-opacity:1"
       d="M 396.02,71.782 L 395.472,95.2062 L 419.253,92.4324 L 419.889,69.0507 z" />
    <path
       style="fill:#e67b7b;fill-rule:evenodd;stroke:#000000;stroke-width:1px;stroke-linecap:butt;stroke-linejoin:miter;stroke-opacity:1"
       d="M 420.53,45.492 L 419.889,69.0507 L 443.651,66.3317 L 444.38,42.8161 z" />
    <path
       style="fill:#e67b7b;fill-rule:evenodd;stroke:#000000;stroke-width:1px;stroke-linecap:butt;stroke-linejoin:miter;stroke-opacity:1"
       d="M 445.115,19.1222 L 444.38,42.8161 L 468.122,40.1523 L 468.945,16.5021 z" />
    <path
       style="fill:#e77b7b;fill-rule:evenodd;stroke:#000000;stroke-width:1px;stroke-linecap:butt;stroke-linejoin:miter;stroke-opacity:1"
       d="M 469.775,-7.32764 L 468.945,16.5021 L 492.667,13.8939 L 493.585,-9.89157 z" />
  </g>
</svg>
